<?xml version="1.0" standalone="no"?>
<!DOCTYPE svg PUBLIC "-//W3C//DTD SVG 20010904//EN"
 "http://www.w3.org/TR/2001/REC-SVG-20010904/DTD/svg10.dtd">
<svg version="1.0" xmlns="http://www.w3.org/2000/svg"
 width="3200.000000pt" height="3200.000000pt" viewBox="0 0 3200.000000 3200.000000"
 preserveAspectRatio="xMidYMid meet">

<g transform="translate(0.000000,3200.000000) scale(0.100000,-0.100000)"
fill="#000000" stroke="none">
<path d="M11039 23783 c-309 -3 -359 -5 -370 -19 -10 -13 -10 -17 0 -24 9 -5
10 -10 2 -14 -15 -10 -14 -27 2 -23 17 3 18 -143 1 -211 -17 -65 -18 -132 -3
-132 8 0 8 -4 -1 -15 -9 -11 -9 -22 -1 -45 7 -21 7 -29 0 -24 -10 6 -4 -2733
6 -2916 2 -41 5 -141 6 -221 l3 -147 83 1 c47 0 78 4 71 9 -10 6 -8 8 5 8 9 0
17 -4 17 -10 0 -13 97 -13 105 0 4 6 3 9 -2 8 -4 -2 -8 2 -8 7 0 6 3 9 7 8 3
-1 12 4 18 12 10 12 9 16 -4 21 -9 3 -13 10 -10 15 10 16 -9 9 -22 -8 -13 -17
-15 -17 -25 0 -5 9 -19 17 -30 17 -18 0 -19 5 -14 62 6 70 11 82 21 44 3 -14
11 -26 17 -26 6 0 2 -7 -9 -15 -18 -13 -17 -14 19 -15 40 0 48 15 20 36 -24
17 -13 25 40 31 44 5 44 5 41 -23 -1 -15 1 -35 6 -44 8 -13 9 -13 10 3 0 10
10 22 23 28 l22 10 -22 -5 c-15 -3 -23 1 -23 10 0 8 7 14 15 14 18 0 20 17 3
22 -20 7 2 28 25 24 12 -1 16 -1 10 1 -8 3 -13 21 -13 43 0 29 4 39 20 43 15
4 20 14 20 41 0 29 4 36 20 36 17 0 20 7 20 39 0 31 4 41 20 46 11 3 24 3 30
0 16 -10 12 15 -5 32 -8 8 -12 19 -9 25 4 6 0 15 -7 20 -10 6 -6 7 11 3 20 -6
23 -5 13 6 -7 7 -13 19 -13 27 0 12 4 11 25 -2 33 -22 38 -20 31 9 -5 18 -2
25 9 25 8 0 15 -5 15 -12 0 -6 3 -8 6 -5 4 4 1 13 -6 22 -7 8 -9 15 -5 15 4 0
2 7 -5 15 -10 12 -10 18 0 30 9 10 11 33 7 72 -4 42 -3 53 6 44 25 -25 37 -12
37 43 0 30 5 58 10 61 6 4 10 -7 10 -25 0 -46 26 -89 54 -90 5 0 2 7 -5 16
-11 13 -10 17 4 26 10 5 15 13 12 19 -9 14 -25 11 -25 -6 0 -8 -4 -15 -9 -15
-4 0 -8 28 -9 63 0 34 2 53 4 42 3 -11 7 -30 10 -42 8 -38 24 -26 24 17 0 22
5 40 11 40 5 0 7 5 4 11 -4 6 1 17 11 25 18 14 18 14 0 29 -19 15 -19 15 2 15
17 0 22 -6 22 -25 0 -30 25 -24 35 8 6 22 6 22 17 -3 11 -24 12 -25 15 -3 2
12 12 24 21 26 9 2 7 3 -6 2 -12 -1 -25 2 -28 6 -3 5 0 9 5 9 6 0 11 6 11 14
0 8 6 17 13 20 6 3 0 3 -15 0 -17 -4 -28 -2 -28 5 0 6 7 11 15 11 8 0 15 4 15
9 0 5 19 7 43 4 33 -4 39 -2 27 7 -11 9 -12 13 -2 17 17 7 15 23 -3 23 -8 0
-15 2 -15 4 0 11 56 66 67 66 22 0 15 -16 -12 -28 -25 -11 -34 -32 -15 -32 6
0 10 4 10 9 0 5 14 11 30 15 27 5 44 36 20 36 -5 0 -10 7 -10 15 0 8 6 15 13
15 8 0 7 4 -3 10 -8 5 -24 9 -35 9 l-20 0 20 -9 c13 -6 15 -9 5 -9 -8 0 -22 4
-30 9 -10 6 -11 10 -2 10 6 0 12 7 12 15 0 8 9 15 20 15 11 0 20 -6 20 -14 0
-8 9 -18 20 -21 15 -5 20 -15 21 -43 0 -35 1 -35 10 -12 6 13 7 35 4 48 -8 34
4 46 26 26 10 -9 19 -12 19 -6 0 16 48 62 65 62 24 0 115 58 115 73 0 3 -24 7
-53 9 -47 3 -53 1 -49 -14 6 -24 -15 -23 -30 2 -16 25 -34 26 -47 3 -7 -13 -8
-6 -6 27 2 25 4 48 4 51 1 4 19 6 40 5 22 -1 39 0 39 3 -4 39 3 49 34 47 25
-1 33 3 33 17 0 16 9 19 47 21 26 1 43 -1 37 -5 -8 -5 -8 -9 0 -13 6 -4 11
-19 11 -32 0 -16 5 -24 13 -21 6 2 11 14 9 25 -4 26 19 30 38 7 7 -8 16 -13
20 -10 5 3 11 1 15 -5 12 -19 26 -11 15 9 -5 11 -6 22 -2 25 5 3 6 24 3 47 -7
48 -31 67 -31 24 0 -24 -2 -26 -16 -15 -14 12 -13 15 1 29 22 22 83 24 88 3 3
-10 5 -5 6 11 1 21 -4 27 -19 27 -11 0 -20 5 -20 11 0 7 10 9 25 7 18 -4 25
-1 25 11 0 12 -10 16 -45 16 -25 0 -45 3 -45 7 0 5 7 8 15 8 8 0 15 5 15 10 0
6 -7 10 -15 10 -21 0 -19 20 3 20 15 1 15 2 1 13 -20 15 -29 56 -20 82 8 19 8
19 21 -4 l13 -24 13 24 c17 31 18 79 2 79 -9 0 -8 4 2 11 12 8 10 9 -10 5 -14
-3 -33 -6 -42 -6 -10 0 -18 -7 -18 -15 0 -8 -7 -15 -15 -15 -31 0 -14 29 20
36 33 6 46 26 26 38 -11 7 -21 56 -10 56 19 0 39 -14 39 -27 0 -42 72 -61 101
-27 9 11 15 11 25 3 8 -6 14 -16 14 -21 0 -13 30 -42 37 -35 3 3 2 22 -1 42
-7 35 -7 35 -59 35 -29 0 -58 -5 -65 -12 -9 -9 -12 -9 -12 0 0 6 9 17 19 24
10 6 17 17 14 23 -5 15 24 28 32 15 4 -6 3 -14 0 -20 -3 -5 1 -10 9 -10 19 0
33 23 18 28 -29 9 -8 22 38 22 47 0 63 11 40 25 -5 3 -10 1 -10 -4 0 -12 -29
-15 -54 -5 -8 3 -12 12 -9 20 4 10 -3 14 -26 14 -32 0 -42 14 -16 24 18 6 45
-2 45 -15 0 -5 14 -9 30 -9 17 0 30 5 30 10 0 6 -7 10 -16 10 -13 0 -52 28
-42 31 2 0 14 3 27 5 14 2 27 7 30 10 7 7 -58 -2 -81 -11 -11 -5 -17 2 -20 22
-3 15 -9 36 -13 46 -5 12 -3 17 9 17 9 0 16 -6 16 -12 0 -7 5 -5 11 5 7 11 17
16 28 12 10 -3 24 1 31 10 11 13 8 15 -19 15 -20 0 -31 5 -30 13 5 30 -13 47
-52 47 -21 0 -39 5 -39 10 0 6 19 10 43 10 55 0 87 9 87 25 0 7 -11 15 -25 17
-17 4 -25 1 -25 -8 0 -10 -13 -14 -40 -14 -29 0 -40 4 -40 15 0 11 11 15 41
15 24 0 38 4 34 10 -3 6 -2 10 4 10 5 0 11 -4 13 -9 2 -5 18 -12 36 -16 27 -6
32 -4 32 13 0 11 2 35 5 53 4 26 3 30 -4 14 -9 -18 -10 -18 -10 -2 -1 13 -8
18 -23 17 -38 -3 -48 -1 -48 13 0 7 12 14 27 15 41 3 50 19 20 33 -22 10 -27
19 -27 51 0 37 1 38 34 38 30 0 33 2 28 26 -6 34 12 44 65 37 65 -9 93 2 93
36 0 68 -31 83 -46 24 l-10 -38 -8 38 c-5 21 -14 37 -22 37 -12 0 -12 4 -2 19
7 11 16 17 20 15 4 -3 8 29 8 70 0 70 9 92 26 65 4 -8 9 -7 15 2 6 11 11 11
21 1 17 -17 38 -15 38 3 0 8 -9 15 -21 15 -11 0 -17 5 -14 10 3 6 19 10 35 10
35 0 60 9 60 22 0 6 -7 8 -14 5 -10 -4 -13 -1 -9 9 3 7 10 14 15 14 6 0 8 7 4
15 -3 9 3 24 14 35 17 17 24 18 41 9 11 -6 23 -8 27 -5 3 3 0 6 -6 6 -6 0 -9
7 -5 17 4 9 2 14 -3 10 -11 -6 -9 72 2 82 4 3 4 -4 1 -17 -4 -19 -2 -22 11
-16 9 3 25 6 34 6 11 0 19 10 23 29 6 28 9 29 64 29 31 0 62 5 68 11 17 17 33
1 33 -33 0 -26 2 -29 15 -18 13 11 15 8 15 -14 0 -29 11 -34 29 -12 12 14 5
72 -10 92 -5 6 -6 14 -2 17 11 12 23 8 23 -8 0 -8 5 -15 10 -15 6 0 8 10 5 23
-7 31 14 53 59 60 30 5 36 3 28 -5 -7 -7 -12 -16 -12 -20 0 -15 29 -8 38 8 5
9 14 14 21 10 19 -12 12 -21 -26 -36 -21 -8 -41 -16 -45 -18 -5 -2 -8 6 -8 17
0 22 -14 28 -25 11 -5 -8 11 -41 33 -70 1 -2 7 2 12 10 8 13 10 12 10 -2 0
-29 27 -21 42 12 7 17 16 30 20 30 5 0 8 7 8 15 0 8 8 15 18 15 19 0 42 18 42
32 0 13 -38 9 -43 -4 -4 -10 -7 -10 -15 0 -5 7 -16 10 -26 6 -11 -4 -24 1 -38
15 -21 24 -18 41 5 23 15 -13 77 5 77 21 0 5 12 8 28 7 15 -1 40 -2 56 -1 24
1 27 3 16 16 -7 8 -10 22 -6 30 4 10 -1 15 -14 15 -43 0 -9 34 44 44 26 5 36
11 33 21 -4 9 5 14 28 17 30 3 33 2 30 -22 -2 -22 -7 -25 -41 -26 -55 -1 -61
-3 -44 -14 12 -8 12 -10 -3 -15 -14 -6 -15 -11 -5 -28 l11 -21 8 22 c5 13 17
22 29 22 11 0 20 5 20 10 0 14 27 12 33 -2 3 -7 6 6 6 30 1 41 13 55 25 30 5
-10 7 -10 12 0 3 6 13 12 21 12 9 0 13 6 10 14 -4 10 0 12 13 9 13 -3 19 -13
17 -27 -3 -28 42 -37 49 -9 7 24 39 37 149 58 89 17 148 27 113 18 -10 -2 -18
-11 -18 -19 0 -8 -10 -19 -22 -24 -13 -5 -18 -9 -11 -9 7 -1 28 8 47 18 39 22
66 28 82 19 5 -4 29 -2 52 4 30 7 42 16 42 29 0 16 2 17 28 3 31 -16 66 -19
57 -4 -8 14 38 13 52 -1 6 -6 18 -9 27 -7 14 2 15 6 4 19 -16 21 -64 38 -53
19 6 -10 -1 -12 -29 -7 -27 4 -35 3 -29 -6 5 -8 2 -8 -9 1 -8 7 -51 14 -94 17
-97 6 -2374 12 -2865 8z m2081 -153 c0 -5 -4 -10 -10 -10 -5 0 -10 5 -10 10 0
6 5 10 10 10 6 0 10 -4 10 -10z m46 -24 c19 -20 18 -26 -6 -26 -13 0 -20 7
-20 20 0 24 6 25 26 6z m-111 -26 c3 -5 -1 -10 -10 -10 -9 0 -13 5 -10 10 3 6
8 10 10 10 2 0 7 -4 10 -10z m23 -41 c-2 -6 -7 -10 -11 -10 -4 1 -14 1 -23 1
-8 0 -12 5 -9 10 8 13 48 13 43 -1z m-145 -96 c-7 -2 -13 -11 -13 -19 0 -8 -7
-14 -15 -14 -8 0 -15 4 -15 8 0 14 23 32 40 31 10 0 11 -2 3 -6z m-83 -7 c0
-2 -3 -11 -6 -20 -9 -23 -24 -20 -24 4 0 11 7 20 15 20 8 0 15 -2 15 -4z m110
-6 c0 -5 -5 -10 -11 -10 -5 0 -7 5 -4 10 3 6 8 10 11 10 2 0 4 -4 4 -10z
m-255 -10 c3 -5 1 -10 -4 -10 -6 0 -11 5 -11 10 0 6 2 10 4 10 3 0 8 -4 11
-10z m189 -51 c-10 -16 -24 -9 -24 12 0 18 2 19 15 9 8 -7 12 -16 9 -21z
m-237 -31 c-3 -8 -6 -5 -6 6 -1 11 2 17 5 13 3 -3 4 -12 1 -19z m-37 -82 c0
-3 -4 -8 -10 -11 -5 -3 -10 -1 -10 4 0 6 5 11 10 11 6 0 10 -2 10 -4z m-56
-54 c-6 -4 -14 -16 -18 -27 -6 -13 -10 -16 -13 -7 -8 20 5 42 24 42 11 0 14
-3 7 -8z m-138 -68 c-11 -7 -22 -12 -25 -9 -2 3 4 12 15 19 10 8 21 12 24 9 3
-2 -4 -11 -14 -19z m101 -9 c-4 -8 -12 -15 -19 -14 -10 0 -10 2 0 6 6 2 12 12
12 21 0 8 3 13 6 9 4 -3 4 -13 1 -22z m-313 -70 c-4 -8 -11 -15 -16 -15 -6 0
-5 6 2 15 7 8 14 15 16 15 2 0 1 -7 -2 -15z m-104 -40 c8 5 11 3 8 -6 -7 -21
-32 -17 -36 6 -2 15 -1 17 6 6 6 -8 15 -10 22 -6z m250 -15 c0 -5 -4 -10 -10
-10 -5 0 -10 5 -10 10 0 6 5 10 10 10 6 0 10 -4 10 -10z m40 -50 c0 -11 -4
-20 -9 -20 -5 0 -7 9 -4 20 3 11 7 20 9 20 2 0 4 -9 4 -20z m-260 -64 c0 -3
-4 -8 -10 -11 -5 -3 -10 -1 -10 4 0 6 5 11 10 11 6 0 10 -2 10 -4z m-113 -12
c-3 -3 -12 -4 -19 -1 -8 3 -5 6 6 6 11 1 17 -2 13 -5z m56 -18 c4 -10 1 -13
-9 -9 -15 6 -19 23 -5 23 5 0 11 -7 14 -14z m-132 -89 c-8 -8 -11 2 -10 34 l1
44 10 -34 c6 -23 6 -37 -1 -44z m45 6 c-10 -10 -19 5 -10 18 6 11 8 11 12 0 2
-7 1 -15 -2 -18z m29 -23 c3 -5 0 -10 -9 -10 -8 0 -21 -3 -30 -6 -9 -3 -16 -1
-16 4 0 9 15 16 42 21 4 0 10 -3 13 -9z m122 4 c-3 -3 -12 -4 -19 -1 -8 3 -5
6 6 6 11 1 17 -2 13 -5z m-212 -34 c3 -5 1 -10 -4 -10 -6 0 -11 5 -11 10 0 6
2 10 4 10 3 0 8 -4 11 -10z m153 3 c-10 -2 -26 -2 -35 0 -10 3 -2 5 17 5 19 0
27 -2 18 -5z m-88 -23 c0 -5 -4 -10 -9 -10 -6 0 -13 5 -16 10 -3 6 1 10 9 10
9 0 16 -4 16 -10z m240 0 c0 -5 -5 -10 -11 -10 -5 0 -7 5 -4 10 3 6 8 10 11
10 2 0 4 -4 4 -10z m-300 -20 c0 -5 -4 -10 -10 -10 -5 0 -10 5 -10 10 0 6 5
10 10 10 6 0 10 -4 10 -10z m-120 -30 c0 -5 -5 -10 -11 -10 -5 0 -7 5 -4 10 3
6 8 10 11 10 2 0 4 -4 4 -10z m127 -82 c-3 -8 -6 -5 -6 6 -1 11 2 17 5 13 3
-3 4 -12 1 -19z m213 12 c0 -5 -15 -10 -32 -10 -25 0 -29 3 -18 10 20 13 50
13 50 0z m-10 -24 c0 -11 -19 -15 -25 -6 -3 5 1 10 9 10 9 0 16 -2 16 -4z
m-200 -16 c0 -5 -2 -10 -4 -10 -3 0 -8 5 -11 10 -3 6 -1 10 4 10 6 0 11 -4 11
-10z m-87 -45 c-22 -17 -30 -11 -13 10 7 8 17 12 22 9 5 -3 1 -12 -9 -19z
m114 -21 c-3 -3 -12 -4 -19 -1 -8 3 -5 6 6 6 11 1 17 -2 13 -5z m23 -54 c0 -5
-2 -10 -4 -10 -3 0 -8 5 -11 10 -3 6 -1 10 4 10 6 0 11 -4 11 -10z m107 -26
c-3 -3 -12 -4 -19 -1 -8 3 -5 6 6 6 11 1 17 -2 13 -5z m50 0 c-3 -3 -12 -4
-19 -1 -8 3 -5 6 6 6 11 1 17 -2 13 -5z m83 -14 c0 -5 -18 -10 -41 -10 -24 0
-38 4 -34 10 3 6 22 10 41 10 19 0 34 -4 34 -10z m-440 -10 c0 -5 -5 -10 -11
-10 -5 0 -7 5 -4 10 3 6 8 10 11 10 2 0 4 -4 4 -10z m355 -10 c4 -6 -7 -10
-24 -10 -17 0 -31 5 -31 10 0 6 11 10 24 10 14 0 28 -4 31 -10z m80 -20 c-3
-5 -21 -10 -39 -10 -28 0 -33 -3 -31 -22 1 -13 0 -15 -2 -5 -2 9 -12 17 -21
17 -15 1 -14 3 2 15 22 17 101 21 91 5z m-89 -57 c22 -29 16 -43 -16 -43 -32
0 -36 9 -20 41 13 24 19 24 36 2z m48 -29 c3 -8 2 -12 -4 -9 -6 3 -10 10 -10
16 0 14 7 11 14 -7z m-50 -45 c-3 -6 -3 -17 1 -27 5 -14 7 -14 16 -2 8 11 8 8
3 -10 -4 -14 -12 -28 -18 -32 -13 -8 -26 22 -21 48 2 11 4 25 4 32 1 7 6 10
11 7 6 -4 8 -11 4 -16z m46 11 c0 -5 -7 -10 -16 -10 -8 0 -12 5 -9 10 3 6 10
10 16 10 5 0 9 -4 9 -10z m-190 -70 c0 -5 -7 -10 -15 -10 -8 0 -15 5 -15 10 0
6 7 10 15 10 8 0 15 -4 15 -10z m230 -10 c0 -5 -7 -10 -15 -10 -8 0 -15 5 -15
10 0 6 7 10 15 10 8 0 15 -4 15 -10z m-125 -20 c-3 -5 -10 -10 -16 -10 -5 0
-9 5 -9 10 0 6 7 10 16 10 8 0 12 -4 9 -10z m65 -20 c0 -5 -7 -7 -15 -4 -8 4
-15 8 -15 10 0 2 7 4 15 4 8 0 15 -4 15 -10z m-200 -60 c0 -5 -4 -10 -10 -10
-5 0 -10 5 -10 10 0 6 5 10 10 10 6 0 10 -4 10 -10z m-14 -45 c18 -14 18 -14
-4 -15 -15 0 -21 4 -16 12 5 8 2 9 -10 5 -10 -4 -15 -3 -11 3 8 14 18 13 41
-5z m61 -57 c-3 -8 -6 -5 -6 6 -1 11 2 17 5 13 3 -3 4 -12 1 -19z m23 -22 c0
-3 -4 -8 -10 -11 -5 -3 -10 -1 -10 4 0 6 5 11 10 11 6 0 10 -2 10 -4z m-130
-80 c0 -3 -4 -8 -10 -11 -5 -3 -10 -1 -10 4 0 6 5 11 10 11 6 0 10 -2 10 -4z
m-50 -27 c0 -5 -4 -9 -10 -9 -5 0 -10 7 -10 16 0 8 5 12 10 9 6 -3 10 -10 10
-16z m-115 -18 c3 -5 1 -12 -5 -16 -5 -3 -10 1 -10 9 0 18 6 21 15 7z m175 -7
c0 -8 -4 -12 -10 -9 -5 3 -10 10 -10 16 0 5 5 9 10 9 6 0 10 -7 10 -16z m-60
-19 c-14 -17 -45 -21 -35 -5 4 6 10 8 15 5 5 -3 11 -1 15 5 3 5 9 10 12 10 3
0 0 -7 -7 -15z m190 1 c0 -2 -7 -6 -15 -10 -8 -3 -15 -1 -15 4 0 6 7 10 15 10
8 0 15 -2 15 -4z m-214 -50 c1 0 5 -12 9 -26 7 -21 6 -22 -7 -10 -8 8 -23 23
-33 34 -19 18 -19 18 5 11 14 -4 26 -8 26 -9z m124 4 c0 -5 -4 -10 -10 -10 -5
0 -10 5 -10 10 0 6 5 10 10 10 6 0 10 -4 10 -10z m122 -12 c-7 -7 -12 -8 -12
-2 0 14 12 26 19 19 2 -3 -1 -11 -7 -17z m-47 2 c3 -5 1 -10 -4 -10 -6 0 -11
5 -11 10 0 6 2 10 4 10 3 0 8 -4 11 -10z m-29 -18 c1 -7 0 -8 -3 -2 -2 5 -9 8
-14 4 -5 -3 -9 0 -9 6 0 15 23 7 26 -8z m-149 -59 c-15 -16 -17 -16 -17 -1 0
9 6 18 13 21 20 7 22 -2 4 -20z m52 -4 c-16 -17 -29 -35 -29 -40 0 -5 -7 -9
-15 -9 -8 0 -15 7 -15 15 0 8 9 15 20 15 11 0 20 5 20 11 0 7 8 18 18 25 30
23 31 15 1 -17z m118 -11 c-3 -8 -6 -5 -6 6 -1 11 2 17 5 13 3 -3 4 -12 1 -19z
m68 -20 c6 -4 -3 -8 -19 -8 -24 0 -27 2 -16 15 7 9 16 12 19 8 3 -4 11 -11 16
-15z m-370 -8 c-3 -5 -10 -10 -16 -10 -5 0 -9 5 -9 10 0 6 7 10 16 10 8 0 12
-4 9 -10z m-34 -67 c-9 -16 -10 -14 -11 12 0 21 3 26 11 18 8 -8 8 -16 0 -30z
m69 18 c0 -15 -28 -52 -31 -40 -11 49 -9 59 11 59 13 0 20 -7 20 -19z m-77
-103 c-9 -69 -63 -131 -63 -73 0 19 55 115 66 115 1 0 0 -19 -3 -42z m34 6
c-3 -3 -12 -4 -19 -1 -8 3 -5 6 6 6 11 1 17 -2 13 -5z m-177 -277 c11 3 20 0
20 -6 0 -6 -11 -11 -25 -11 -17 0 -25 5 -24 18 0 9 3 12 5 6 3 -7 14 -10 24
-7z m-60 -37 c0 -5 -4 -10 -10 -10 -5 0 -10 5 -10 10 0 6 5 10 10 10 6 0 10
-4 10 -10z m-25 -20 c3 -5 1 -10 -4 -10 -6 0 -11 5 -11 10 0 6 2 10 4 10 3 0
8 -4 11 -10z m15 -50 c0 -5 -7 -10 -15 -10 -8 0 -15 5 -15 10 0 6 7 10 15 10
8 0 15 -4 15 -10z m-115 -70 c3 -5 -1 -10 -10 -10 -9 0 -13 5 -10 10 3 6 8 10
10 10 2 0 7 -4 10 -10z m-115 -179 c0 -6 -4 -13 -10 -16 -5 -3 -10 1 -10 9 0
9 5 16 10 16 6 0 10 -4 10 -9z m-30 -41 c0 -5 -2 -10 -4 -10 -3 0 -8 5 -11 10
-3 6 -1 10 4 10 6 0 11 -4 11 -10z m30 -25 c0 -8 -4 -15 -10 -15 -5 0 -10 7
-10 15 0 8 5 15 10 15 6 0 10 -7 10 -15z m-90 -5 c-19 -13 -30 -13 -30 0 0 6
10 10 23 10 18 0 19 -2 7 -10z m62 -72 c-9 -9 -12 -7 -12 12 0 19 3 21 12 12
9 -9 9 -15 0 -24z m15 -34 c-3 -3 -12 -4 -19 -1 -8 3 -5 6 6 6 11 1 17 -2 13
-5z m-476 -257 c-10 -9 -11 -8 -5 6 3 10 9 15 12 12 3 -3 0 -11 -7 -18z m281
-82 c0 -5 -5 -11 -11 -13 -6 -2 -11 4 -11 13 0 9 5 15 11 13 6 -2 11 -8 11
-13z m-49 -35 c3 -11 1 -20 -4 -20 -5 0 -9 9 -9 20 0 11 2 20 4 20 2 0 6 -9 9
-20z m-213 -10 c0 -5 -5 -10 -11 -10 -5 0 -7 5 -4 10 3 6 8 10 11 10 2 0 4 -4
4 -10z m190 -30 c0 -5 -9 -10 -20 -10 -11 0 -20 5 -20 10 0 6 9 10 20 10 11 0
20 -4 20 -10z m37 4 c-3 -3 -12 -4 -19 -1 -8 3 -5 6 6 6 11 1 17 -2 13 -5z
m-200 -36 c-3 -8 -6 -5 -6 6 -1 11 2 17 5 13 3 -3 4 -12 1 -19z m-27 -38 c0
-5 -2 -10 -4 -10 -3 0 -8 5 -11 10 -3 6 -1 10 4 10 6 0 11 -4 11 -10z m30 0
c0 -5 -2 -10 -4 -10 -3 0 -8 5 -11 10 -3 6 -1 10 4 10 6 0 11 -4 11 -10z m-20
-30 c0 -5 -9 -10 -21 -10 -11 0 -17 5 -14 10 3 6 13 10 21 10 8 0 14 -4 14
-10z m20 -69 c0 -12 -2 -13 -9 -3 -7 11 -10 10 -15 -3 -3 -9 -3 -22 1 -27 3
-7 1 -8 -5 -4 -13 7 -16 48 -6 59 10 10 34 -5 34 -22z m34 14 c-4 -8 -1 -15 6
-15 6 0 8 -4 5 -10 -11 -18 -25 -10 -25 15 0 14 4 25 10 25 5 0 7 -7 4 -15z"/>
<path d="M14618 23783 c7 -3 16 -2 19 1 4 3 -2 6 -13 5 -11 0 -14 -3 -6 -6z"/>
<path d="M14668 23780 c36 -15 26 -18 -37 -13 -32 3 -66 1 -76 -5 -14 -7 -7
-10 31 -9 83 1 188 -3 183 -7 -2 -3 -22 -7 -44 -10 -105 -13 -104 -22 2 -17
l85 3 -7 -23 c-4 -15 -3 -19 3 -11 11 16 72 34 72 21 0 -5 3 -8 8 -6 4 1 7 -2
7 -8 0 -5 -7 -8 -15 -7 -11 3 -12 1 -4 -8 7 -7 19 -8 37 -1 22 8 25 8 20 -5
-4 -10 2 -17 16 -21 26 -7 27 -19 2 -32 -20 -11 -34 -48 -21 -53 7 -2 15 -100
10 -118 -1 -3 -3 -22 -5 -42 -3 -31 -1 -38 13 -38 14 0 14 -2 3 -9 -21 -13 -6
-62 17 -55 14 5 14 4 3 -4 -19 -14 -21 -92 -4 -113 12 -14 12 -19 -2 -32 -18
-19 -19 -28 -3 -24 7 1 15 -11 19 -28 4 -16 6 130 5 325 l-1 355 -170 2 c-114
2 -163 -1 -147 -7z m100 -7 c-10 -2 -26 -2 -35 0 -10 3 -2 5 17 5 19 0 27 -2
18 -5z"/>
<path d="M14250 23776 c0 -9 30 -14 35 -6 4 6 -3 10 -14 10 -12 0 -21 -2 -21
-4z"/>
<path d="M14312 23769 c7 -5 24 -9 39 -9 14 0 30 -5 37 -12 9 -9 12 -8 12 5 0
18 -2 18 -63 22 -24 1 -34 -1 -25 -6z"/>
<path d="M14145 23760 c-7 -11 4 -13 50 -10 51 3 53 20 3 20 -26 0 -50 -4 -53
-10z"/>
<path d="M14438 23760 c19 -4 46 -4 60 0 21 6 13 8 -33 8 -51 0 -55 -1 -27 -8z"/>
<path d="M14288 23733 c6 -2 18 -2 25 0 6 3 1 5 -13 5 -14 0 -19 -2 -12 -5z"/>
<path d="M14488 23723 c7 -3 16 -2 19 1 4 3 -2 6 -13 5 -11 0 -14 -3 -6 -6z"/>
<path d="M13610 23665 c0 -8 4 -15 10 -15 5 0 7 7 4 15 -4 8 -8 15 -10 15 -2
0 -4 -7 -4 -15z"/>
<path d="M13280 23440 c0 -6 7 -10 15 -10 8 0 15 2 15 4 0 2 -7 6 -15 10 -8 3
-15 1 -15 -4z"/>
<path d="M13201 23384 c0 -11 3 -14 6 -6 3 7 2 16 -1 19 -3 4 -6 -2 -5 -13z"/>
<path d="M13145 23370 c-4 -6 6 -10 22 -10 22 0 25 2 13 10 -19 12 -27 12 -35
0z"/>
<path d="M12778 23313 c-50 -3 -58 -7 -58 -23 0 -11 5 -20 10 -20 6 0 10 -9
10 -20 0 -31 21 -24 69 25 24 25 40 44 35 43 -5 -1 -35 -3 -66 -5z"/>
<path d="M12973 23293 c-9 -3 -7 -11 7 -25 10 -11 23 -17 29 -13 16 9 14 25
-3 25 -8 0 -16 4 -18 9 -1 4 -8 6 -15 4z"/>
<path d="M12820 23271 c0 -6 5 -13 10 -16 6 -3 10 1 10 9 0 9 -4 16 -10 16 -5
0 -10 -4 -10 -9z"/>
<path d="M12680 23244 c0 -14 3 -14 15 -4 8 7 15 14 15 16 0 2 -7 4 -15 4 -8
0 -15 -7 -15 -16z"/>
<path d="M12880 23237 c0 -17 20 -37 37 -37 20 0 15 13 -12 33 -19 13 -25 15
-25 4z"/>
<path d="M12700 23200 c0 -5 5 -10 10 -10 6 0 10 5 10 10 0 6 -4 10 -10 10 -5
0 -10 -4 -10 -10z"/>
<path d="M13015 23200 c-16 -7 -17 -9 -3 -9 9 -1 20 4 23 9 7 11 7 11 -20 0z"/>
<path d="M12640 23150 c24 -34 41 -39 33 -10 -3 11 -12 20 -19 20 -8 0 -14 5
-14 10 0 6 -5 10 -11 10 -6 0 -1 -13 11 -30z"/>
<path d="M12625 23120 c3 -5 8 -10 11 -10 2 0 4 5 4 10 0 6 -5 10 -11 10 -5 0
-7 -4 -4 -10z"/>
<path d="M12590 23079 c0 -5 5 -7 10 -4 6 3 10 8 10 11 0 2 -4 4 -10 4 -5 0
-10 -5 -10 -11z"/>
<path d="M12542 23058 c2 -6 10 -14 16 -16 7 -2 10 2 6 12 -7 18 -28 22 -22 4z"/>
<path d="M14963 23035 c0 -22 2 -30 4 -17 2 12 2 30 0 40 -3 9 -5 -1 -4 -23z"/>
<path d="M12434 23015 c-4 -9 -3 -19 0 -23 9 -8 42 12 39 24 -4 16 -33 16 -39
-1z"/>
<path d="M12640 23020 c0 -5 5 -10 11 -10 5 0 7 5 4 10 -3 6 -8 10 -11 10 -2
0 -4 -4 -4 -10z"/>
<path d="M12445 22960 c-7 -12 2 -30 16 -30 6 0 17 6 24 14 12 12 12 15 -1 20
-22 8 -32 7 -39 -4z"/>
<path d="M14972 22940 c0 -14 2 -19 5 -12 2 6 2 18 0 25 -3 6 -5 1 -5 -13z"/>
<path d="M14962 22860 c0 -14 2 -19 5 -12 2 6 2 18 0 25 -3 6 -5 1 -5 -13z"/>
<path d="M12360 22760 c0 -5 5 -10 10 -10 6 0 10 5 10 10 0 6 -4 10 -10 10 -5
0 -10 -4 -10 -10z"/>
<path d="M12400 22739 c0 -5 -4 -8 -9 -4 -5 3 -12 2 -15 -3 -3 -5 23 -9 57 -9
34 0 53 2 42 4 -11 3 -24 9 -29 14 -14 12 -46 11 -46 -2z"/>
<path d="M12530 22736 c0 -8 -6 -17 -12 -19 -10 -4 -10 -6 -1 -6 7 -1 17 8 23
19 7 14 7 20 0 20 -5 0 -10 -6 -10 -14z"/>
<path d="M12446 22664 c-8 -20 -9 -19 29 -28 25 -6 28 -5 15 6 -8 7 -20 19
-26 26 -9 11 -13 10 -18 -4z"/>
<path d="M12380 22629 c0 -5 5 -7 10 -4 6 3 10 8 10 11 0 2 -4 4 -10 4 -5 0
-10 -5 -10 -11z"/>
<path d="M12495 22594 c1 -15 9 -30 16 -35 21 -13 26 1 6 16 -12 8 -14 15 -8
20 16 9 13 25 -3 25 -9 0 -13 -9 -11 -26z"/>
<path d="M12345 22601 c-3 -5 -1 -12 5 -16 5 -3 10 1 10 9 0 18 -6 21 -15 7z"/>
<path d="M12377 22603 c-3 -5 -1 -17 4 -28 7 -17 8 -17 8 8 1 27 -4 34 -12 20z"/>
<path d="M12350 22489 c0 -5 4 -9 9 -9 6 0 7 -15 4 -33 -6 -42 14 -62 48 -47
23 10 23 10 2 6 -28 -5 -31 14 -3 21 23 6 27 23 5 23 -8 0 -15 6 -15 13 0 6
-11 17 -25 24 -14 6 -25 7 -25 2z"/>
<path d="M12485 22480 c3 -5 14 -10 23 -10 15 0 15 2 2 10 -20 13 -33 13 -25
0z"/>
<path d="M12310 22435 c-7 -13 -20 -26 -29 -28 -9 -2 1 -4 22 -3 34 0 37 2 37
28 0 35 -12 36 -30 3z"/>
<path d="M12471 22384 c0 -11 3 -14 6 -6 3 7 2 16 -1 19 -3 4 -6 -2 -5 -13z"/>
<path d="M12280 22380 c0 -5 7 -10 15 -10 8 0 15 5 15 10 0 6 -7 10 -15 10 -8
0 -15 -4 -15 -10z"/>
<path d="M12320 22380 c0 -5 4 -10 9 -10 6 0 13 5 16 10 3 6 -1 10 -9 10 -9 0
-16 -4 -16 -10z"/>
<path d="M12353 22323 c-7 -2 -13 -11 -13 -19 0 -8 -4 -14 -10 -14 -5 0 -10
-7 -10 -15 0 -12 10 -10 52 11 38 19 48 28 37 35 -15 9 -37 10 -56 2z"/>
<path d="M12380 22255 c0 -8 5 -15 10 -15 6 0 10 7 10 15 0 8 -4 15 -10 15 -5
0 -10 -7 -10 -15z"/>
<path d="M12465 22250 c-3 -5 -1 -10 4 -10 6 0 11 5 11 10 0 6 -2 10 -4 10 -3
0 -8 -4 -11 -10z"/>
<path d="M12360 22175 c-14 -8 -19 -14 -12 -15 6 0 12 -9 12 -20 0 -11 4 -20
9 -20 5 0 8 8 7 18 0 10 6 17 15 16 11 -1 15 5 12 17 -6 22 -10 23 -43 4z"/>
<path d="M12332 22098 c6 -18 28 -21 28 -4 0 9 -7 16 -16 16 -9 0 -14 -5 -12
-12z"/>
<path d="M12210 22000 c-16 -23 -36 -26 -43 -7 -2 6 -4 -3 -5 -21 0 -27 2 -31
12 -22 10 8 15 6 19 -10 9 -35 37 -24 37 14 0 19 3 41 6 50 9 23 -9 20 -26 -4z"/>
<path d="M12248 21923 c6 -2 12 -12 12 -21 0 -15 2 -15 10 -2 9 15 -4 30 -25
29 -5 0 -4 -3 3 -6z"/>
<path d="M12160 21890 c0 -5 11 -10 25 -10 14 0 25 5 25 10 0 6 -11 10 -25 10
-14 0 -25 -4 -25 -10z"/>
<path d="M12173 21853 c-7 -2 -13 -18 -13 -34 0 -18 4 -28 10 -24 6 3 10 15
10 26 0 10 5 19 11 19 6 0 8 -11 4 -29 -7 -35 3 -83 18 -78 14 4 17 98 4 115
-10 12 -23 14 -44 5z"/>
<path d="M12291 21824 c0 -11 3 -14 6 -6 3 7 2 16 -1 19 -3 4 -6 -2 -5 -13z"/>
<path d="M12170 21695 c0 -8 5 -15 10 -15 6 0 10 7 10 15 0 8 -4 15 -10 15 -5
0 -10 -7 -10 -15z"/>
<path d="M11860 21530 c0 -5 7 -10 16 -10 8 0 12 5 9 10 -3 6 -10 10 -16 10
-5 0 -9 -4 -9 -10z"/>
<path d="M11905 21530 c-3 -5 -1 -10 4 -10 6 0 11 5 11 10 0 6 -2 10 -4 10 -3
0 -8 -4 -11 -10z"/>
<path d="M11970 21499 c0 -15 5 -19 15 -15 11 4 15 -1 15 -16 0 -21 1 -21 17
-6 13 14 14 20 4 32 -8 9 -17 13 -22 10 -5 -3 -9 0 -9 5 0 6 -4 11 -10 11 -5
0 -10 -9 -10 -21z"/>
<path d="M12066 21501 c-4 -7 -5 -15 -2 -18 9 -9 19 4 14 18 -4 11 -6 11 -12
0z"/>
<path d="M11775 21480 c3 -5 10 -10 16 -10 5 0 9 5 9 10 0 6 -7 10 -16 10 -8
0 -12 -4 -9 -10z"/>
<path d="M14887 21483 c-2 -1 -293 -3 -648 -3 -354 0 -654 -3 -665 -6 -16 -4
-23 -16 -28 -46 -13 -79 -5 -3748 8 -3765 0 0 992 -3 2203 -5 l2202 -3 7 85
c4 47 4 294 0 550 -15 1070 -25 2058 -27 2652 0 193 -4 330 -10 334 -5 3 -7
10 -4 15 4 5 1 9 -4 9 -6 0 -11 10 -11 23 0 18 2 19 10 7 7 -11 10 -7 11 18 0
17 1 45 2 60 0 15 -2 33 -6 39 -13 21 -121 22 -2695 38 -188 1 -344 0 -345 -2z"/>
<path d="M11825 21470 c3 -5 8 -10 11 -10 2 0 4 5 4 10 0 6 -5 10 -11 10 -5 0
-7 -4 -4 -10z"/>
<path d="M11980 21430 c0 -5 5 -10 10 -10 6 0 10 5 10 10 0 6 -4 10 -10 10 -5
0 -10 -4 -10 -10z"/>
<path d="M11950 21405 c0 -8 5 -15 10 -15 6 0 10 7 10 15 0 8 -4 15 -10 15 -5
0 -10 -7 -10 -15z"/>
<path d="M11770 21260 c0 -11 4 -20 9 -20 5 0 11 9 14 20 3 13 0 20 -9 20 -8
0 -14 -9 -14 -20z"/>
<path d="M11660 21190 c0 -5 5 -10 10 -10 6 0 10 5 10 10 0 6 -4 10 -10 10 -5
0 -10 -4 -10 -10z"/>
<path d="M11707 21180 c3 -11 9 -17 14 -14 14 8 10 34 -5 34 -9 0 -12 -7 -9
-20z"/>
<path d="M11630 21165 c0 -8 5 -15 10 -15 6 0 10 7 10 15 0 8 -4 15 -10 15 -5
0 -10 -7 -10 -15z"/>
<path d="M11577 21074 c-8 -8 1 -24 14 -24 5 0 9 7 9 15 0 15 -12 20 -23 9z"/>
<path d="M11505 20960 c-3 -5 -1 -10 4 -10 6 0 11 5 11 10 0 6 -2 10 -4 10 -3
0 -8 -4 -11 -10z"/>
<path d="M11618 20963 c12 -2 32 -2 45 0 12 2 2 4 -23 4 -25 0 -35 -2 -22 -4z"/>
<path d="M11430 20920 c0 -51 2 -56 17 -52 7 2 13 -2 13 -8 0 -5 7 -10 15 -10
24 0 17 19 -10 26 -25 6 -33 28 -15 39 5 3 15 15 20 26 9 16 7 19 -15 19 -23
0 -25 -4 -25 -40z"/>
<path d="M11430 20830 c0 -5 7 -7 15 -4 8 4 15 1 15 -5 0 -6 7 -11 15 -11 23
0 18 17 -7 24 -32 8 -38 7 -38 -4z"/>
<path d="M11432 20685 c0 -16 2 -22 5 -12 2 9 2 23 0 30 -3 6 -5 -1 -5 -18z"/>
<path d="M11375 20691 c-3 -5 -1 -12 5 -16 5 -3 10 1 10 9 0 18 -6 21 -15 7z"/>
<path d="M11328 20633 c6 -2 18 -2 25 0 6 3 1 5 -13 5 -14 0 -19 -2 -12 -5z"/>
<path d="M11328 20598 c9 -9 15 -9 24 0 9 9 7 12 -12 12 -19 0 -21 -3 -12 -12z"/>
<path d="M11271 20574 c0 -11 3 -14 6 -6 3 7 2 16 -1 19 -3 4 -6 -2 -5 -13z"/>
<path d="M11240 20526 c0 -11 11 -14 43 -13 23 1 42 7 42 12 0 6 -19 11 -42
13 -33 2 -43 0 -43 -12z"/>
<path d="M11184 20458 c3 -13 6 -31 6 -40 0 -11 7 -18 18 -17 10 0 12 3 5 6
-15 6 -17 33 -3 33 16 0 11 27 -6 34 -24 9 -27 8 -20 -16z"/>
<path d="M11320 20470 c20 -13 40 -13 40 0 0 6 -12 10 -27 10 -22 0 -25 -2
-13 -10z"/>
<path d="M11300 20411 c0 -6 6 -11 14 -11 8 0 16 -5 18 -11 2 -7 10 -10 16 -8
7 2 0 12 -18 22 -16 10 -30 13 -30 8z"/>
<path d="M11165 20279 c-10 -15 3 -25 16 -12 7 7 7 13 1 17 -6 3 -14 1 -17 -5z"/>
<path d="M20350 20280 c-53 -6 -53 -7 -15 -10 39 -3 39 -3 8 -7 -18 -2 -33 -8
-33 -12 0 -10 31 -38 37 -33 7 7 63 -10 63 -18 0 -5 -6 -7 -14 -4 -8 3 -17 1
-21 -5 -5 -10 14 -16 38 -12 12 2 8 -8 -14 -38 -15 -20 -22 -47 -24 -87 -2
-33 -6 -75 -10 -95 -4 -23 -3 -39 4 -43 21 -13 12 -27 -10 -16 -30 17 -34 5
-10 -28 26 -37 26 -38 -1 -46 l-23 -7 22 -9 c19 -8 21 -13 14 -32 -5 -13 -16
-22 -25 -22 -12 2 -16 -4 -14 -19 4 -26 28 -35 28 -10 0 15 2 15 9 4 6 -9 6
-22 1 -32 -5 -9 -6 -19 -3 -23 3 -3 4 -6 0 -6 -3 0 -13 7 -21 16 -15 14 -20
14 -59 0 l-42 -16 38 5 c33 5 37 3 37 -15 0 -12 4 -19 9 -16 5 4 7 -3 4 -15
-4 -16 -13 -20 -37 -18 -17 1 -44 1 -60 0 -28 -1 -28 -2 -13 -19 21 -23 13
-32 -25 -32 -19 0 -28 5 -28 16 0 13 -2 14 -14 1 -22 -21 -9 -57 20 -57 13 0
24 -4 24 -9 0 -5 3 -16 6 -24 3 -9 0 -15 -8 -14 -52 2 -108 -5 -108 -13 0 -5
20 -10 45 -10 36 0 45 -3 45 -17 0 -14 -2 -15 -9 -4 -6 9 -18 11 -35 7 -21 -5
-26 -12 -26 -35 0 -16 6 -32 13 -34 6 -3 2 -6 -10 -6 -25 -1 -46 -32 -37 -55
3 -8 12 -12 21 -9 11 4 14 2 11 -8 -3 -8 -16 -13 -29 -12 -15 1 -17 0 -6 -3
25 -8 21 -24 -5 -24 -13 0 -30 -5 -38 -10 -11 -7 -5 -10 23 -10 20 0 37 -5 37
-11 0 -7 -17 -10 -45 -7 -39 3 -43 1 -29 -9 10 -7 15 -16 11 -19 -4 -4 -12 -3
-19 3 -7 5 -29 6 -48 2 l-35 -6 37 -2 c34 -1 36 -3 34 -28 -2 -16 2 -31 8 -35
6 -4 -4 -8 -21 -8 -22 0 -33 -5 -33 -14 0 -8 -14 -24 -30 -36 -17 -12 -27 -26
-23 -33 5 -8 8 -8 11 1 7 23 32 13 32 -13 0 -20 -5 -25 -25 -25 -16 0 -25 -6
-25 -15 0 -8 -7 -15 -16 -15 -8 0 -12 -5 -9 -10 4 -6 15 -8 26 -5 13 4 19 2
19 -9 0 -19 -17 -30 -25 -16 -3 5 -17 10 -30 10 -21 0 -27 -8 -41 -57 -18 -64
-35 -84 -64 -76 -15 4 -20 0 -20 -15 0 -12 -10 -28 -22 -36 -26 -18 -48 -21
-48 -6 0 6 6 10 14 10 19 0 36 23 28 37 -11 16 -72 27 -72 13 0 -7 -7 -10 -14
-7 -10 4 -13 1 -9 -9 3 -7 11 -14 18 -14 8 0 17 -5 21 -12 5 -8 -2 -9 -25 -5
-28 6 -30 5 -17 -8 8 -8 22 -15 31 -15 9 0 14 -4 10 -9 -3 -5 0 -13 6 -17 9
-5 7 -11 -6 -21 -21 -15 -39 -17 -31 -4 8 13 -4 42 -15 35 -5 -3 -9 -16 -9
-30 0 -14 -4 -22 -10 -19 -14 9 -12 52 3 59 6 3 3 5 -8 3 -13 -1 -21 -11 -23
-27 -6 -40 -22 -48 -22 -12 0 38 -4 39 -33 12 -18 -18 -20 -24 -9 -40 12 -19
3 -28 -12 -12 -4 4 -20 7 -34 7 -15 1 -37 4 -49 9 -15 4 -23 3 -23 -3 0 -6 7
-11 16 -11 14 0 16 -7 11 -40 -3 -22 -1 -43 4 -46 5 -3 9 -10 9 -16 0 -7 -17
-8 -50 -4 -32 4 -50 3 -50 -4 0 -5 12 -10 28 -11 15 0 36 -4 46 -8 18 -7 18
-8 -5 -14 -13 -4 -44 -7 -69 -8 -54 -2 -119 -16 -82 -18 29 -1 19 -21 -11 -21
-12 0 -28 9 -35 20 -7 11 -17 20 -22 20 -20 0 -9 -37 16 -59 21 -18 28 -20 35
-10 6 11 11 11 21 1 9 -9 9 -12 -5 -12 -9 0 -17 -4 -17 -10 0 -14 -28 -12 -32
2 -7 20 -52 -19 -64 -55 -8 -24 -17 -33 -37 -35 -15 -2 -27 -8 -27 -14 0 -6
-8 -17 -17 -24 -17 -13 -17 -13 0 -14 27 0 20 -20 -7 -20 -13 0 -31 -3 -40 -6
-11 -4 -16 -1 -16 10 0 9 5 16 10 16 6 0 10 5 10 11 0 6 -7 9 -15 6 -8 -4 -17
-2 -20 3 -4 6 -12 10 -18 10 -7 -1 -5 -6 5 -13 12 -9 14 -17 7 -30 -8 -13 -6
-17 5 -17 13 0 13 -5 1 -41 -14 -40 -13 -59 5 -59 5 0 11 8 13 18 3 11 5 8 6
-9 1 -20 -5 -28 -21 -33 -13 -3 -25 -1 -26 4 -2 6 -11 17 -19 26 -15 14 -17
14 -27 -3 -6 -10 -11 -43 -11 -73 0 -42 -3 -55 -15 -55 -8 0 -13 7 -12 15 7
32 7 35 -8 35 -10 0 -15 -10 -15 -30 0 -24 -5 -31 -23 -33 -32 -5 -50 -46 -29
-66 9 -9 23 -16 31 -16 12 0 16 -11 16 -46 0 -42 -1 -44 -17 -29 -20 21 -78
12 -109 -16 -19 -17 -36 -23 -91 -28 -7 0 -13 -5 -13 -11 0 -6 30 -10 70 -10
l70 0 0 30 c0 27 3 30 30 30 30 0 30 0 15 -24 -9 -13 -23 -27 -32 -30 -8 -4
-13 -13 -10 -21 5 -11 -7 -13 -66 -11 -40 2 -64 1 -54 -1 9 -3 17 -11 17 -19
0 -8 5 -14 10 -14 6 0 10 -6 10 -14 0 -8 12 -17 26 -20 15 -4 24 -10 21 -13
-10 -10 -67 18 -67 33 0 22 -24 16 -50 -11 -25 -27 -22 -46 3 -20 21 21 44 19
57 -5 6 -11 17 -20 25 -20 8 0 15 -4 15 -10 0 -13 -6 -13 -45 1 -43 16 -105 4
-105 -20 0 -27 -11 -33 -26 -13 -12 15 -13 14 -14 -10 0 -36 -20 -78 -37 -78
-16 0 -16 -5 -1 -29 9 -15 9 -23 -1 -35 -20 -24 -31 -19 -25 12 4 19 1 32 -10
41 -20 17 -46 7 -46 -18 0 -20 -25 -35 -41 -25 -5 3 -9 -3 -10 -13 0 -16 -1
-16 -10 2 -8 16 -8 15 -4 -8 5 -26 4 -27 -29 -24 -20 2 -33 0 -30 -4 3 -5 15
-9 27 -9 20 -1 20 -2 4 -11 -9 -5 -21 -7 -26 -4 -6 3 -9 -3 -8 -13 1 -14 8
-17 34 -15 35 2 52 -12 34 -30 -8 -8 -15 -6 -25 8 -13 18 -14 18 -27 -3 -9
-14 -24 -22 -41 -22 -21 0 -28 -5 -28 -19 0 -21 4 -22 110 -23 30 -1 49 -3 43
-5 -7 -3 -13 -12 -13 -20 0 -12 -3 -13 -14 -4 -11 9 -16 9 -21 1 -4 -7 -16 -9
-27 -7 -15 4 -18 2 -14 -10 6 -13 4 -14 -9 -3 -12 10 -19 10 -27 2 -9 -9 -9
-12 1 -12 8 0 11 -6 7 -15 -3 -8 0 -15 6 -15 6 0 8 -3 4 -7 -4 -4 -17 -8 -29
-8 -15 0 -22 -6 -22 -20 0 -13 -7 -20 -20 -21 -11 0 -33 -6 -48 -12 -16 -7
-33 -9 -38 -6 -6 3 -16 0 -24 -6 -11 -9 -15 -9 -15 -1 0 6 -5 11 -10 11 -6 0
-5 -8 2 -20 10 -16 10 -24 0 -40 -7 -12 -8 -20 -2 -20 5 0 10 5 10 11 0 5 5 7
10 4 15 -9 2 -25 -21 -25 -10 0 -19 7 -19 15 0 8 -9 15 -20 15 -11 0 -20 6
-20 13 0 9 -12 11 -39 9 -32 -3 -39 0 -44 17 -8 33 -39 27 -34 -6 3 -23 9 -28
33 -28 25 0 29 -3 26 -25 -5 -33 -12 -38 -23 -17 -11 18 -39 24 -39 7 0 -5 9
-19 20 -30 11 -11 20 -24 20 -30 0 -5 9 -10 20 -10 11 0 20 -6 20 -14 0 -8 6
-16 13 -19 6 -3 2 -4 -10 -4 -13 1 -23 7 -23 13 0 7 -8 10 -20 7 -11 -3 -20
-9 -20 -13 0 -4 -11 -5 -25 -3 -14 3 -31 -1 -40 -11 -9 -9 -12 -16 -6 -16 6 0
11 -6 11 -14 0 -9 8 -12 24 -9 18 4 24 1 23 -12 -1 -10 4 -20 11 -22 7 -3 12
4 12 15 0 16 9 22 40 27 22 4 42 10 45 15 6 10 45 1 45 -11 0 -5 -20 -9 -43
-9 -38 0 -45 -4 -56 -27 -11 -23 -10 -29 5 -40 10 -7 12 -13 6 -13 -7 0 -12
-11 -12 -25 0 -14 -5 -25 -11 -25 -6 0 -10 10 -9 23 4 49 1 53 -42 54 l-43 2
24 -20 25 -20 -27 7 c-21 5 -27 3 -25 -7 2 -9 -4 -13 -14 -11 -10 2 -18 -2
-18 -8 0 -5 8 -10 17 -10 30 0 -19 -36 -59 -44 -33 -6 -57 -31 -43 -44 3 -3 5
0 5 6 0 17 30 15 36 -3 4 -8 15 -15 25 -15 10 0 19 7 19 15 0 8 -8 15 -17 15
-15 0 -15 2 -4 9 11 7 22 1 43 -22 21 -24 24 -33 13 -35 -10 -2 -15 -17 -16
-45 -1 -25 -3 -32 -6 -17 -10 69 -13 72 -40 65 -14 -3 -32 -13 -40 -20 -8 -8
-25 -15 -39 -15 -32 0 -31 -16 1 -22 17 -4 25 -1 25 9 0 8 5 11 10 8 6 -3 10
-13 10 -21 0 -10 -12 -14 -40 -14 -44 0 -52 -13 -19 -30 17 -9 18 -14 8 -26
-10 -13 -10 -17 2 -25 10 -6 8 -9 -12 -9 -14 0 -31 6 -38 13 -11 10 -13 9 -8
-4 3 -9 0 -16 -9 -16 -8 0 -14 9 -14 19 0 10 -4 18 -10 18 -12 0 -12 -8 -1
-72 6 -36 5 -45 -6 -41 -7 3 -13 12 -13 20 0 11 -6 14 -22 9 -13 -3 -33 -6
-44 -6 -20 0 -21 -4 -16 -45 3 -30 1 -45 -7 -45 -6 0 -12 17 -12 38 -1 21 -3
28 -6 17 -8 -33 -20 -39 -33 -15 -9 16 -8 25 2 37 11 14 11 15 -2 11 -20 -7
-15 -84 6 -105 20 -20 11 -28 -15 -13 -12 6 -26 8 -31 5 -5 -3 -11 -1 -15 5
-11 17 -35 11 -61 -15 -19 -19 -21 -25 -9 -25 9 0 18 7 21 15 4 8 9 15 13 15
10 0 8 -76 -2 -86 -4 -5 -5 -1 -2 7 8 22 -16 41 -35 28 -11 -8 -12 -12 -2 -16
20 -8 14 -29 -13 -47 -22 -14 -23 -19 -12 -37 10 -16 9 -21 -3 -29 -20 -13
-30 -12 -30 3 0 9 -2 9 -9 -1 -4 -8 -26 -15 -48 -15 -22 -1 -40 -6 -40 -12 0
-33 -5 -45 -19 -45 -12 0 -15 6 -11 21 3 13 1 19 -6 16 -12 -4 -13 -74 -2 -86
3 -3 22 -5 43 -5 20 1 29 -1 20 -3 -10 -3 -18 -9 -18 -13 0 -5 -15 -7 -32 -4
-32 5 -32 5 -13 -11 20 -16 20 -16 1 -31 -11 -8 -16 -14 -10 -15 5 0 -1 -4
-14 -10 -18 -7 -22 -14 -18 -31 3 -13 3 -17 0 -10 -3 6 -12 12 -20 12 -19 0
-18 26 2 34 8 3 13 10 9 15 -3 5 -1 12 5 16 5 3 10 1 10 -6 0 -10 3 -10 12 -1
10 10 10 15 -2 22 -19 12 -50 -6 -50 -30 0 -26 -14 -25 -34 3 l-17 22 6 -22
c5 -18 2 -23 -14 -23 -12 0 -21 -5 -21 -11 0 -7 10 -9 25 -7 14 3 25 1 25 -3
0 -5 7 -9 15 -9 8 0 15 -6 15 -14 0 -8 6 -17 13 -20 6 -3 2 -3 -9 -1 -13 3
-28 -1 -37 -10 -9 -8 -22 -15 -29 -15 -20 -1 -48 -26 -48 -44 0 -9 -8 -16 -20
-16 -25 0 -27 20 -2 21 11 0 12 2 4 6 -7 3 -20 -1 -28 -8 -14 -11 -12 -14 10
-26 30 -16 34 -39 9 -47 -10 -2 -28 -7 -40 -11 -20 -5 -23 -3 -24 22 0 27 -1
27 -11 7 -5 -12 -20 -27 -32 -32 -17 -9 -12 -11 32 -11 30 -1 51 -5 47 -10 -3
-6 3 -15 12 -21 15 -9 12 -10 -15 -6 -31 5 -33 4 -26 -17 l6 -22 -24 23 c-27
25 -48 29 -48 8 0 -20 -27 -41 -32 -24 -3 9 -13 8 -40 -5 -20 -9 -52 -17 -71
-17 -20 0 -37 -5 -39 -11 -2 -5 -19 -11 -38 -11 -19 0 -48 -8 -63 -17 -25 -14
-29 -14 -37 -1 -7 11 -12 12 -18 3 -4 -6 -24 -14 -45 -18 -20 -4 -37 -11 -37
-16 0 -5 10 -7 23 -4 43 11 62 12 77 5 44 -22 467 -28 2400 -36 866 -3 1589
-6 1605 -7 l30 -2 -4 1140 c-2 627 -5 1244 -6 1370 -2 127 -4 695 -5 1263 -1
649 -5 1030 -11 1027 -5 -4 -9 -1 -9 4 0 6 -3 10 -7 9 -5 -1 -33 -4 -63 -8z
m-90 -694 c0 -3 -4 -8 -10 -11 -5 -3 -10 -1 -10 4 0 6 5 11 10 11 6 0 10 -2
10 -4z m50 -6 c0 -5 -9 -10 -20 -10 -11 0 -20 5 -20 10 0 6 9 10 20 10 11 0
20 -4 20 -10z m-10 -40 c0 -5 -4 -10 -10 -10 -5 0 -10 5 -10 10 0 6 5 10 10
10 6 0 10 -4 10 -10z m-70 -30 c0 -5 -4 -10 -10 -10 -5 0 -10 5 -10 10 0 6 5
10 10 10 6 0 10 -4 10 -10z m87 4 c-3 -3 -12 -4 -19 -1 -8 3 -5 6 6 6 11 1 17
-2 13 -5z m3 -34 c0 -5 -7 -10 -15 -10 -8 0 -15 5 -15 10 0 6 7 10 15 10 8 0
15 -4 15 -10z m-130 -90 c0 -5 -4 -10 -9 -10 -6 0 -13 5 -16 10 -3 6 1 10 9
10 9 0 16 -4 16 -10z m-195 -310 c-3 -5 -15 -10 -26 -10 -11 0 -17 5 -14 10 3
6 15 10 26 10 11 0 17 -4 14 -10z m13 -61 c-3 -8 -7 -3 -11 10 -4 17 -3 21 5
13 5 -5 8 -16 6 -23z m-91 -55 c-3 -3 -12 -4 -19 -1 -8 3 -5 6 6 6 11 1 17 -2
13 -5z m-237 -184 c0 -5 -9 -10 -20 -10 -11 0 -20 5 -20 10 0 6 9 10 20 10 11
0 20 -4 20 -10z m87 -62 c-3 -8 -6 -5 -6 6 -1 11 2 17 5 13 3 -3 4 -12 1 -19z
m-74 -81 c-4 -6 -10 -2 -14 9 -12 31 -9 40 6 20 8 -10 11 -24 8 -29z m-267
-34 c-11 -11 -19 6 -11 24 8 17 8 17 12 0 3 -10 2 -21 -1 -24z m94 -3 c0 -5
-4 -10 -10 -10 -5 0 -10 5 -10 10 0 6 5 10 10 10 6 0 10 -4 10 -10z m-15 -50
c-3 -5 -10 -10 -16 -10 -5 0 -9 5 -9 10 0 6 7 10 16 10 8 0 12 -4 9 -10z
m-122 -70 c8 0 8 -3 0 -11 -9 -9 -16 -7 -30 7 -17 17 -17 18 0 11 10 -4 24 -7
30 -7z m-106 -26 c-3 -3 -12 -4 -19 -1 -8 3 -5 6 6 6 11 1 17 -2 13 -5z m-117
-63 c0 -6 -4 -13 -10 -16 -5 -3 -10 1 -10 9 0 9 5 16 10 16 6 0 10 -4 10 -9z
m60 -5 c0 -3 -4 -8 -10 -11 -5 -3 -10 -1 -10 4 0 6 5 11 10 11 6 0 10 -2 10
-4z m-44 -63 c-10 -10 -19 5 -10 18 6 11 8 11 12 0 2 -7 1 -15 -2 -18z m51 11
c-3 -3 -12 -4 -19 -1 -8 3 -5 6 6 6 11 1 17 -2 13 -5z m69 -34 c0 -11 -4 -20
-8 -20 -4 0 -8 9 -8 20 0 11 4 20 8 20 4 0 8 -9 8 -20z m-139 4 c-3 -3 -12 -4
-19 -1 -8 3 -5 6 6 6 11 1 17 -2 13 -5z m63 -4 c0 -5 -4 -10 -9 -10 -6 0 -13
5 -16 10 -3 6 1 10 9 10 9 0 16 -4 16 -10z m-217 -70 c-13 -5 -23 -14 -23 -20
0 -5 -4 -10 -10 -10 -14 0 -12 27 3 33 6 3 21 5 32 6 18 0 18 -1 -2 -9z m217
-20 c0 -5 -4 -10 -10 -10 -5 0 -10 5 -10 10 0 6 5 10 10 10 6 0 10 -4 10 -10z
m-210 -20 c0 -5 -7 -10 -16 -10 -8 0 -12 5 -9 10 3 6 10 10 16 10 5 0 9 -4 9
-10z m38 -30 c-7 -10 -14 -18 -15 -16 -6 6 9 36 18 36 5 0 4 -9 -3 -20z m-38
-4 c0 -3 -4 -8 -10 -11 -5 -3 -10 -1 -10 4 0 6 5 11 10 11 6 0 10 -2 10 -4z
m82 -8 c-9 -9 -15 -9 -24 0 -9 9 -7 12 12 12 19 0 21 -3 12 -12z m-94 -105
c-1 -16 1 -34 6 -41 8 -14 -12 -16 -33 -3 -9 6 -10 10 -2 16 9 5 9 10 1 20 -6
7 -8 25 -4 39 5 22 8 23 20 11 8 -8 13 -27 12 -42z m87 47 c3 -5 -3 -10 -14
-10 -10 0 -27 -3 -37 -7 -16 -6 -17 -5 -4 10 17 18 46 22 55 7z m-166 -9 c8
-5 9 -11 3 -15 -13 -8 -42 3 -42 15 0 11 21 11 39 0z m-69 -121 c0 -10 -61
-32 -68 -25 -3 2 1 11 8 20 9 11 9 15 1 15 -7 0 -10 4 -6 9 6 11 65 -6 65 -19z
m117 -37 c-3 -10 -5 -4 -5 12 0 17 2 24 5 18 2 -7 2 -21 0 -30z m58 28 c3 -5
1 -12 -5 -16 -5 -3 -10 1 -10 9 0 18 6 21 15 7z m-175 -145 c0 -3 -4 -8 -10
-11 -5 -3 -10 -1 -10 4 0 6 5 11 10 11 6 0 10 -2 10 -4z m-207 -205 c6 -6 -6
-6 -28 -1 -20 4 -40 12 -43 16 -10 10 61 -5 71 -15z m-63 -20 c0 -5 -9 -13
-20 -16 -22 -7 -27 -40 -7 -48 6 -3 3 -6 -8 -6 -16 -1 -20 6 -22 33 -2 35 -1
35 50 45 4 0 7 -3 7 -8z m-86 -36 c-4 -8 -8 -15 -10 -15 -2 0 -4 7 -4 15 0 8
4 15 10 15 5 0 7 -7 4 -15z m-94 -55 c0 -5 -5 -10 -11 -10 -5 0 -7 5 -4 10 3
6 8 10 11 10 2 0 4 -4 4 -10z m86 -27 c-3 -29 -26 -45 -26 -18 0 12 18 43 27
45 1 0 0 -12 -1 -27z m-83 -33 c3 -11 1 -20 -4 -20 -5 0 -9 9 -9 20 0 11 2 20
4 20 2 0 6 -9 9 -20z m-58 -35 c0 -29 -4 -45 -12 -45 -9 0 -13 16 -13 45 0 30
4 45 13 45 8 0 12 -15 12 -45z m45 -21 c0 -8 -4 -14 -10 -14 -5 0 -10 9 -10
21 0 11 5 17 10 14 6 -3 10 -13 10 -21z m37 10 c-3 -3 -12 -4 -19 -1 -8 3 -5
6 6 6 11 1 17 -2 13 -5z m-87 -64 c0 -5 -4 -10 -10 -10 -5 0 -10 5 -10 10 0 6
5 10 10 10 6 0 10 -4 10 -10z m-56 -24 c-7 -18 -25 -17 -31 1 -2 6 4 13 14 15
23 5 25 4 17 -16z m21 -76 c4 -6 11 -8 16 -5 12 8 11 -6 -1 -25 -8 -13 -15 -9
-7 5 1 2 -7 11 -18 19 -11 9 -15 16 -8 16 6 0 15 -5 18 -10z m-58 -62 c-3 -8
-6 -5 -6 6 -1 11 2 17 5 13 3 -3 4 -12 1 -19z m-107 -62 c0 -3 -4 -8 -10 -11
-5 -3 -10 -1 -10 4 0 6 5 11 10 11 6 0 10 -2 10 -4z m60 -6 c0 -5 -9 -10 -20
-10 -11 0 -20 5 -20 10 0 6 9 10 20 10 11 0 20 -4 20 -10z m-130 -10 c0 -5 -4
-10 -10 -10 -5 0 -10 5 -10 10 0 6 5 10 10 10 6 0 10 -4 10 -10z m54 -29 c10
-11 16 -28 13 -38 -4 -14 -5 -14 -6 5 -2 39 -20 24 -24 -20 -3 -42 -4 -42 -5
9 -1 30 -7 53 -14 56 -9 4 -7 6 3 6 9 1 24 -8 33 -18z m-36 -47 c-3 -27 -4
-26 -9 8 -3 22 -1 34 4 29 5 -5 7 -21 5 -37z m-111 25 c-24 -14 -12 -32 13
-19 13 7 21 7 25 0 3 -5 1 -10 -6 -10 -7 0 -21 -7 -31 -17 -17 -15 -18 -15
-18 5 0 12 -5 22 -10 22 -6 0 -5 6 2 15 7 8 20 14 28 14 12 0 11 -2 -3 -10z
m58 -69 c13 -5 14 -9 5 -9 -8 0 -24 4 -35 9 -13 5 -14 9 -5 9 8 0 24 -4 35 -9z
m-28 -26 c9 -8 13 -18 10 -21 -3 -3 -13 2 -22 11 -9 9 -23 16 -30 16 -8 0 -17
5 -21 11 -10 17 44 2 63 -17z m-117 -25 c0 -11 -4 -17 -10 -14 -5 3 -10 13
-10 21 0 8 5 14 10 14 6 0 10 -9 10 -21z m-50 -9 c0 -5 -4 -10 -10 -10 -5 0
-10 5 -10 10 0 6 5 10 10 10 6 0 10 -4 10 -10z m10 -164 c0 -9 -7 -12 -20 -9
-14 4 -20 1 -18 -7 2 -7 -3 -15 -9 -17 -7 -3 -13 0 -13 6 0 6 0 14 -1 19 0 4
10 10 23 14 35 9 38 9 38 -6z m57 -72 c-3 -3 -12 -4 -19 -1 -8 3 -5 6 6 6 11
1 17 -2 13 -5z m-167 -54 c0 -5 -7 -10 -15 -10 -8 0 -15 5 -15 10 0 6 7 10 15
10 8 0 15 -4 15 -10z m67 -22 c-3 -7 -5 -2 -5 12 0 14 2 19 5 13 2 -7 2 -19 0
-25z m-67 -18 c0 -5 -7 -10 -15 -10 -8 0 -15 5 -15 10 0 6 7 10 15 10 8 0 15
-4 15 -10z m-7 -35 c1 -5 -6 -11 -15 -13 -11 -2 -18 3 -18 13 0 17 30 18 33 0z
m-238 -225 c4 -6 -6 -10 -22 -10 -22 0 -25 2 -13 10 19 12 27 12 35 0z m-197
-142 c10 -10 15 -10 22 2 5 8 12 11 16 7 4 -4 0 -15 -9 -25 -14 -13 -19 -14
-26 -4 -4 7 -12 12 -17 11 -19 -3 -34 1 -34 11 0 14 34 12 48 -2z m-18 -58 c0
-5 -5 -10 -11 -10 -5 0 -7 5 -4 10 3 6 8 10 11 10 2 0 4 -4 4 -10z m-100 -65
c-29 -16 -60 -19 -60 -6 0 11 23 18 60 19 l25 1 -25 -14z m-100 -169 c0 -3 -4
-8 -10 -11 -5 -3 -10 -1 -10 4 0 6 5 11 10 11 6 0 10 -2 10 -4z m-20 -67 c0
-5 -4 -9 -10 -9 -5 0 -10 7 -10 16 0 8 5 12 10 9 6 -3 10 -10 10 -16z m-117
-15 c8 -8 -3 -34 -14 -34 -5 0 -9 9 -9 20 0 19 11 26 23 14z m-16 -120 c-3 -3
-12 -4 -19 -1 -8 3 -5 6 6 6 11 1 17 -2 13 -5z m-271 -103 c-5 -8 -56 -3 -56
5 0 2 14 4 31 4 16 0 28 -4 25 -9z"/>
<path d="M20248 20253 c6 -2 18 -2 25 0 6 3 1 5 -13 5 -14 0 -19 -2 -12 -5z"/>
<path d="M11090 20206 c0 -2 7 -6 15 -10 8 -3 15 -1 15 4 0 6 -7 10 -15 10 -8
0 -15 -2 -15 -4z"/>
<path d="M11245 20190 c-3 -5 -1 -10 4 -10 6 0 11 5 11 10 0 6 -2 10 -4 10 -3
0 -8 -4 -11 -10z"/>
<path d="M10962 20178 c5 -15 28 -18 29 -3 0 6 -7 12 -17 13 -10 3 -15 -1 -12
-10z"/>
<path d="M11040 20083 c0 -16 5 -19 33 -14 23 3 26 6 12 9 -11 2 -26 9 -32 14
-10 8 -13 5 -13 -9z"/>
<path d="M10998 20073 c6 -2 18 -2 25 0 6 3 1 5 -13 5 -14 0 -19 -2 -12 -5z"/>
<path d="M11058 20050 c-15 -4 -29 -6 -31 -4 -2 3 -10 -3 -18 -13 -12 -14 -12
-16 0 -8 10 5 12 4 7 -3 -4 -7 -14 -12 -22 -12 -8 0 -14 -4 -14 -9 0 -5 38 -9
85 -9 47 1 85 4 85 8 0 4 10 10 22 13 18 5 19 8 9 21 -12 14 -16 14 -41 -4
-29 -21 -40 -18 -40 12 0 20 -2 20 -42 8z m12 -30 c0 -5 -5 -10 -11 -10 -5 0
-7 5 -4 10 3 6 8 10 11 10 2 0 4 -4 4 -10z"/>
<path d="M11250 20051 c0 -6 -5 -11 -11 -11 -6 0 -17 -6 -25 -14 -28 -29 -15
-36 61 -36 62 0 79 4 95 20 16 16 17 20 5 20 -8 0 -15 -4 -15 -10 0 -14 -58
-12 -67 3 -14 21 -43 41 -43 28z m24 -27 c9 -24 7 -28 -9 -14 -17 14 -20 30
-6 30 5 0 12 -7 15 -16z"/>
<path d="M11405 20011 c3 -5 -3 -12 -12 -15 -10 -2 -5 -4 11 -3 34 2 49 27 16
27 -12 0 -19 -4 -15 -9z"/>
<path d="M11456 20003 c-4 -9 -1 -11 5 -7 6 4 14 2 18 -3 3 -5 16 -4 31 4 14
7 21 13 15 14 -51 6 -65 4 -69 -8z"/>
<path d="M20151 19654 c0 -11 3 -14 6 -6 3 7 2 16 -1 19 -3 4 -6 -2 -5 -13z"/>
<path d="M20212 19638 c6 -18 28 -21 28 -4 0 9 -7 16 -16 16 -9 0 -14 -5 -12
-12z"/>
<path d="M20120 19500 c0 -5 11 -10 25 -10 14 0 25 5 25 10 0 6 -11 10 -25 10
-14 0 -25 -4 -25 -10z"/>
<path d="M20050 19375 c0 -9 6 -12 15 -9 8 4 15 10 15 15 0 5 -7 9 -15 9 -8 0
-15 -7 -15 -15z"/>
<path d="M19840 19000 c0 -5 5 -10 11 -10 5 0 7 5 4 10 -3 6 -8 10 -11 10 -2
0 -4 -4 -4 -10z"/>
<path d="M19751 18893 c0 -7 -8 -13 -16 -13 -20 0 -19 -14 2 -53 l18 -32 3 28
c2 15 1 39 -1 55 -2 15 -5 21 -6 15z"/>
<path d="M19520 18740 c0 -5 5 -10 10 -10 6 0 10 5 10 10 0 6 -4 10 -10 10 -5
0 -10 -4 -10 -10z"/>
<path d="M19405 18720 c-3 -5 -1 -10 4 -10 6 0 11 5 11 10 0 6 -2 10 -4 10 -3
0 -8 -4 -11 -10z"/>
<path d="M19440 18710 c0 -5 5 -10 10 -10 6 0 10 5 10 10 0 6 -4 10 -10 10 -5
0 -10 -4 -10 -10z"/>
<path d="M19415 18680 c-3 -5 1 -10 9 -10 9 0 16 5 16 10 0 6 -4 10 -9 10 -6
0 -13 -4 -16 -10z"/>
<path d="M19362 18580 c0 -14 2 -19 5 -12 2 6 2 18 0 25 -3 6 -5 1 -5 -13z"/>
<path d="M19197 18523 c-12 -12 -7 -22 8 -17 8 4 15 10 15 15 0 11 -14 12 -23
2z"/>
<path d="M18997 18353 c-13 -12 -7 -43 7 -43 19 0 28 14 20 34 -7 17 -16 20
-27 9z"/>
<path d="M18866 18202 c-2 -4 -1 -14 5 -22 7 -12 9 -10 9 8 0 23 -5 28 -14 14z"/>
<path d="M18815 18160 c-3 -5 -2 -10 4 -10 5 0 13 5 16 10 3 6 2 10 -4 10 -5
0 -13 -4 -16 -10z"/>
<path d="M18810 18100 c-17 -11 -8 -23 14 -18 9 2 12 8 8 15 -5 8 -13 9 -22 3z"/>
<path d="M18750 18060 c0 -5 11 -10 25 -10 14 0 25 5 25 10 0 6 -11 10 -25 10
-14 0 -25 -4 -25 -10z"/>
<path d="M18725 18020 c-4 -6 10 -10 34 -10 23 0 41 5 41 10 0 6 -15 10 -34
10 -19 0 -38 -4 -41 -10z"/>
<path d="M18720 17934 c0 -8 5 -12 10 -9 6 3 10 10 10 16 0 5 -4 9 -10 9 -5 0
-10 -7 -10 -16z"/>
<path d="M18670 17905 c-7 -8 -9 -15 -6 -15 4 0 14 7 22 15 9 8 11 15 6 15 -5
0 -15 -7 -22 -15z"/>
<path d="M18740 17890 c0 -5 9 -10 20 -10 11 0 20 5 20 10 0 6 -9 10 -20 10
-11 0 -20 -4 -20 -10z"/>
<path d="M18672 17859 c-12 -18 -11 -20 5 -17 10 2 19 11 21 21 5 23 -10 21
-26 -4z"/>
<path d="M18351 17734 c0 -11 3 -14 6 -6 3 7 2 16 -1 19 -3 4 -6 -2 -5 -13z"/>
<path d="M18430 17740 c0 -5 5 -10 10 -10 6 0 10 5 10 10 0 6 -4 10 -10 10 -5
0 -10 -4 -10 -10z"/>
<path d="M18490 17719 c0 -24 18 -33 36 -18 20 16 13 34 -14 35 -15 1 -22 -5
-22 -17z"/>
<path d="M18430 17700 c0 -5 4 -10 9 -10 6 0 13 5 16 10 3 6 -1 10 -9 10 -9 0
-16 -4 -16 -10z"/>
<path d="M18496 17655 c4 -8 8 -15 10 -15 2 0 4 7 4 15 0 8 -4 15 -10 15 -5 0
-7 -7 -4 -15z"/>
<path d="M18290 17600 c0 -5 5 -10 10 -10 6 0 10 5 10 10 0 6 -4 10 -10 10 -5
0 -10 -4 -10 -10z"/>
<path d="M18366 17585 c-8 -30 -7 -45 4 -45 6 0 10 9 10 19 0 29 18 35 22 9 3
-19 5 -18 9 8 5 28 3 31 -17 30 -14 0 -25 -9 -28 -21z"/>
<path d="M18305 17570 c-3 -5 -1 -10 4 -10 6 0 11 5 11 10 0 6 -2 10 -4 10 -3
0 -8 -4 -11 -10z"/>
<path d="M18291 17508 c0 -18 3 -27 6 -20 2 6 9 10 14 6 5 -3 9 2 9 11 0 9 -4
13 -10 10 -6 -3 -7 1 -4 9 3 9 1 16 -5 16 -6 0 -11 -15 -10 -32z"/>
<path d="M18040 17290 c0 -13 11 -13 30 0 12 8 11 10 -7 10 -13 0 -23 -4 -23
-10z"/>
<path d="M18147 17269 c-20 -12 -23 -29 -3 -29 17 0 40 26 29 33 -5 3 -16 1
-26 -4z"/>
<path d="M18080 17210 c0 -5 10 -10 23 -10 18 0 19 2 7 10 -19 13 -30 13 -30
0z"/>
<path d="M18160 17211 c0 -5 7 -12 16 -15 14 -5 15 -4 4 9 -14 17 -20 19 -20
6z"/>
<path d="M18040 17185 c0 -9 5 -15 11 -13 6 2 11 8 11 13 0 5 -5 11 -11 13 -6
2 -11 -4 -11 -13z"/>
<path d="M17996 17087 c3 -10 9 -15 12 -12 3 3 0 11 -7 18 -10 9 -11 8 -5 -6z"/>
<path d="M17840 16978 c0 -9 -6 -19 -12 -21 -10 -4 -10 -6 0 -6 14 -1 28 26
18 36 -3 4 -6 -1 -6 -9z"/>
<path d="M17708 16953 c6 -2 18 -2 25 0 6 3 1 5 -13 5 -14 0 -19 -2 -12 -5z"/>
<path d="M17726 16921 c-11 -4 -15 -10 -10 -13 5 -4 18 0 29 8 20 15 12 17
-19 5z"/>
<path d="M17740 16870 c0 -11 2 -20 4 -20 2 0 6 9 9 20 3 11 1 20 -4 20 -5 0
-9 -9 -9 -20z"/>
<path d="M17760 16850 c0 -5 5 -10 10 -10 6 0 10 5 10 10 0 6 -4 10 -10 10 -5
0 -10 -4 -10 -10z"/>
<path d="M17700 16820 c0 -11 5 -20 10 -20 6 0 10 9 10 20 0 11 -4 20 -10 20
-5 0 -10 -9 -10 -20z"/>
<path d="M17741 16823 c-1 -17 5 -23 19 -23 11 0 20 5 20 11 0 6 -6 9 -14 6
-9 -4 -17 1 -19 11 -3 12 -5 11 -6 -5z"/>
<path d="M17670 16815 c-10 -12 -10 -15 4 -15 9 0 16 7 16 15 0 8 -2 15 -4 15
-2 0 -9 -7 -16 -15z"/>
<path d="M17448 16613 c7 -3 16 -2 19 1 4 3 -2 6 -13 5 -11 0 -14 -3 -6 -6z"/>
<path d="M17520 16500 c0 -11 2 -20 4 -20 2 0 6 9 9 20 3 11 1 20 -4 20 -5 0
-9 -9 -9 -20z"/>
<path d="M17170 16160 c-12 -8 -11 -10 8 -10 12 0 22 5 22 10 0 13 -11 13 -30
0z"/>
<path d="M16940 16020 c0 -5 5 -10 10 -10 6 0 10 5 10 10 0 6 -4 10 -10 10 -5
0 -10 -4 -10 -10z"/>
<path d="M17030 16006 c0 -17 14 -29 23 -20 8 8 -3 34 -14 34 -5 0 -9 -6 -9
-14z"/>
<path d="M16923 15872 c-24 -2 -43 -7 -43 -13 0 -13 77 -11 85 2 9 14 7 14
-42 11z"/>
<path d="M16865 15830 c3 -5 12 -10 20 -10 8 0 17 5 20 10 4 6 -5 10 -20 10
-15 0 -24 -4 -20 -10z"/>
<path d="M16626 15631 c-3 -5 1 -11 9 -14 9 -4 12 -1 8 9 -6 16 -10 17 -17 5z"/>
<path d="M16273 15523 c9 -2 23 -2 30 0 6 3 -1 5 -18 5 -16 0 -22 -2 -12 -5z"/>
<path d="M15523 15493 c26 -2 67 -2 90 0 23 2 2 3 -48 3 -49 0 -68 -1 -42 -3z"/>
<path d="M15743 15493 c48 -2 125 -2 170 0 45 1 6 3 -88 3 -93 0 -130 -2 -82
-3z"/>
<path d="M30883 14485 c-75 -16 -150 -48 -181 -78 -42 -39 -68 -110 -96 -262
-8 -44 -34 -490 -46 -785 -13 -347 -18 -375 -73 -428 -40 -39 -109 -55 -181
-41 -113 21 -365 49 -539 60 -459 28 -849 -58 -1152 -256 -84 -55 -233 -186
-307 -270 -178 -204 -278 -431 -344 -780 -25 -133 -25 -526 -1 -650 54 -270
152 -506 272 -655 57 -71 159 -178 215 -226 144 -122 372 -226 607 -275 221
-47 414 -66 674 -68 306 -3 518 29 771 114 138 47 208 82 344 173 133 89 269
222 343 333 100 152 175 338 216 532 44 203 48 305 46 972 -1 352 3 989 10
1416 13 844 11 917 -36 1008 -43 85 -125 139 -251 166 -85 18 -208 18 -291 0z
m-961 -1999 c153 -30 283 -102 395 -220 78 -81 128 -164 178 -289 65 -166 87
-315 87 -572 -2 -568 -172 -994 -449 -1122 -131 -60 -256 -86 -413 -86 -281 0
-475 66 -613 208 -157 161 -265 386 -313 655 -26 147 -25 422 3 575 65 365
253 661 497 785 120 61 207 78 398 79 96 1 184 -4 230 -13z"/>
<path d="M2410 14439 c-1093 -7 -1645 -18 -1715 -37 l-30 -8 -3 -164 c-3 -191
8 -265 41 -275 27 -8 435 -21 917 -30 402 -7 536 -16 589 -43 31 -15 38 -27
64 -102 29 -83 29 -91 37 -370 3 -157 8 -973 9 -1815 1 -911 5 -1556 11 -1595
5 -36 10 -68 10 -72 0 -4 14 -23 31 -42 20 -24 56 -45 112 -68 82 -33 83 -33
252 -33 199 0 249 12 306 73 50 52 65 80 86 153 16 60 17 145 18 1269 0 663
-2 1455 -4 1760 l-4 555 31 87 c36 103 61 139 123 179 67 43 130 47 779 53
510 6 690 13 707 30 11 11 16 457 6 467 -29 29 -693 37 -2373 28z"/>
<path d="M19333 13952 c-48 -3 -53 -5 -53 -27 0 -13 4 -25 9 -27 17 -7 22 -46
6 -61 -8 -9 -15 -24 -15 -35 0 -11 -7 -23 -16 -26 -8 -3 -13 -10 -10 -15 3 -5
-4 -11 -16 -14 -18 -5 -19 -8 -8 -21 8 -11 9 -16 1 -16 -6 0 -11 -5 -11 -11 0
-6 -7 -18 -16 -27 -10 -10 -12 -18 -6 -20 15 -5 -7 -52 -23 -52 -21 0 -46 -48
-39 -75 6 -25 -10 -36 -19 -12 -4 8 -8 9 -14 1 -4 -6 -15 -14 -23 -17 -8 -3 2
-6 23 -6 20 -1 37 -5 37 -11 0 -5 -17 -11 -37 -12 -74 -3 114 -15 254 -17
l142 -1 -6 248 c-3 136 -6 248 -7 248 -4 5 -110 8 -153 6z"/>
<path d="M18940 13023 c-49 -8 -156 -47 -192 -69 -45 -29 -79 -72 -115 -149
l-28 -60 0 -1555 c0 -1664 2 -1582 -52 -1855 -25 -131 -57 -230 -89 -282 -26
-41 -105 -134 -138 -162 -15 -14 -33 -29 -40 -35 -132 -124 -444 -219 -875
-266 -108 -12 -154 -27 -165 -55 -20 -54 10 -238 56 -338 18 -40 27 -49 62
-58 89 -25 444 -2 666 42 253 51 503 125 639 191 148 72 335 200 447 305 62
58 136 153 192 247 48 80 134 294 155 386 47 200 55 534 60 2490 2 904 1 948
-17 1003 -49 149 -202 228 -436 225 -58 0 -116 -3 -130 -5z"/>
<path d="M20500 12955 c-124 -25 -219 -78 -269 -151 -40 -58 -43 -111 -38
-893 5 -788 5 -793 55 -1017 57 -255 162 -461 329 -645 108 -118 234 -219 344
-274 57 -29 220 -90 299 -111 79 -22 294 -61 373 -69 38 -4 159 -6 270 -6 321
1 551 36 812 123 194 65 354 169 546 355 170 164 296 408 353 683 38 183 41
268 41 1025 l0 740 -24 49 c-34 68 -72 109 -139 147 -75 42 -140 59 -235 59
-98 0 -201 -23 -293 -65 -62 -28 -76 -40 -100 -81 l-29 -49 -6 -770 c-7 -788
-10 -865 -50 -1058 -31 -147 -53 -214 -112 -329 -91 -181 -247 -310 -422 -352
-189 -44 -434 -54 -585 -22 -160 33 -288 115 -369 235 -87 127 -126 228 -170
441 -53 256 -62 396 -61 1030 0 577 -9 789 -35 840 -20 39 -91 107 -136 130
-89 46 -226 60 -349 35z"/>
<path d="M16210 12914 c-171 -11 -451 -63 -595 -110 -309 -102 -605 -321 -772
-574 -51 -77 -129 -224 -151 -285 -6 -16 -22 -60 -37 -98 -97 -251 -129 -585
-79 -832 35 -175 131 -404 226 -542 54 -79 214 -247 303 -320 229 -186 536
-307 910 -359 191 -26 538 -15 750 24 159 30 359 87 466 135 31 14 110 57 176
95 300 177 513 444 612 767 17 55 36 141 43 190 17 117 16 460 -1 545 -34 176
-46 222 -73 305 -69 207 -188 401 -351 572 -113 117 -219 195 -389 283 -182
94 -358 151 -568 186 -86 14 -369 25 -470 18z m380 -464 c178 -50 319 -144
407 -272 122 -176 191 -367 218 -595 32 -272 9 -578 -58 -780 -56 -167 -163
-342 -266 -435 -257 -231 -860 -221 -1158 18 -140 113 -230 268 -279 479 -17
70 -19 123 -19 420 1 316 3 348 24 450 52 249 110 373 235 503 70 73 94 90
181 132 102 50 214 84 327 100 101 14 302 4 388 -20z"/>
<path d="M12380 12890 c-188 -14 -441 -67 -597 -126 -108 -41 -294 -140 -368
-197 -172 -132 -245 -208 -340 -357 -88 -137 -166 -341 -194 -505 -41 -241
-45 -326 -46 -990 0 -605 1 -655 19 -725 27 -108 38 -125 100 -154 97 -46 168
-58 341 -60 150 -1 163 1 208 23 81 40 129 112 153 231 4 19 6 315 5 657 -3
959 13 1105 148 1370 50 97 102 154 217 236 183 130 456 184 719 142 181 -29
271 -71 376 -176 66 -66 85 -94 138 -200 67 -137 95 -231 112 -383 7 -61 15
-404 19 -876 6 -758 7 -776 28 -841 12 -36 32 -75 45 -87 13 -13 64 -36 113
-53 86 -30 94 -31 279 -32 181 -2 192 -1 234 22 69 36 134 109 153 172 31 102
41 320 35 806 -3 252 -11 499 -16 548 -6 50 -17 149 -25 220 -27 243 -67 388
-155 562 -91 181 -280 400 -431 500 -210 138 -441 218 -750 257 -147 19 -385
27 -520 16z"/>
<path d="M8785 12871 c-289 -45 -456 -93 -665 -193 -373 -177 -638 -447 -784
-801 -90 -218 -123 -426 -112 -705 8 -184 32 -317 80 -442 45 -114 63 -153
107 -227 169 -280 414 -501 689 -621 297 -130 563 -176 1005 -175 234 0 261 2
425 31 96 17 216 43 265 57 93 27 385 140 466 181 106 53 144 158 82 226 -24
27 -97 23 -289 -16 -230 -47 -312 -57 -472 -57 -360 1 -699 99 -1032 299 -429
257 -649 801 -504 1248 54 166 121 281 223 388 101 104 201 170 341 224 211
81 562 99 744 38 142 -48 215 -95 395 -255 188 -168 212 -175 336 -91 88 59
199 161 240 221 20 28 26 45 21 64 -11 43 -154 183 -278 271 -346 246 -612
339 -1003 349 -123 3 -188 0 -280 -14z"/>
<path d="M25504 12870 c-292 -44 -501 -121 -729 -268 -72 -46 -214 -162 -251
-204 -94 -109 -212 -287 -233 -350 -7 -21 -16 -40 -21 -43 -5 -3 -24 -54 -44
-113 -86 -262 -96 -369 -97 -1033 0 -868 7 -930 120 -1013 47 -35 151 -83 151
-71 0 3 9 1 20 -5 54 -29 221 -3 339 53 71 35 97 66 134 167 38 101 47 226 47
635 1 687 20 902 111 1207 43 146 97 251 172 339 83 97 134 138 227 182 99 47
203 73 347 87 99 10 134 9 223 -4 219 -33 355 -90 455 -189 108 -108 177 -292
195 -515 32 -416 48 -910 41 -1262 -10 -510 -6 -544 84 -613 87 -66 99 -70
225 -71 63 -1 171 3 240 7 161 10 200 27 241 107 52 99 60 182 66 640 7 586
-14 1056 -56 1240 -53 233 -213 525 -375 685 -158 156 -361 267 -615 339 -280
78 -738 108 -1017 66z"/>
<path d="M5105 12860 c-203 -22 -382 -73 -554 -160 -182 -91 -303 -176 -471
-330 -32 -29 -154 -169 -194 -222 -129 -172 -224 -421 -254 -671 -16 -122 1
-380 33 -507 43 -170 113 -325 219 -480 59 -86 262 -293 361 -367 232 -174
576 -309 870 -342 280 -32 486 -19 628 37 156 63 330 156 379 204 63 61 75 93
50 127 -37 51 -64 54 -492 52 -395 -2 -509 4 -625 34 -131 35 -243 116 -360
263 -117 146 -180 290 -191 435 -6 81 -6 82 22 109 59 54 -46 49 1314 68 716
10 781 13 848 31 75 20 155 56 204 92 36 27 51 97 45 224 -10 250 -74 443
-224 672 -109 167 -275 340 -410 427 -32 20 -70 45 -84 55 -50 34 -224 117
-323 154 -223 83 -544 121 -791 95z m368 -450 c125 -32 256 -101 330 -174 191
-188 297 -432 242 -561 -15 -37 -31 -46 -125 -72 -45 -12 -144 -16 -530 -19
-513 -3 -738 5 -785 27 -49 23 -88 90 -93 157 -4 51 0 69 31 135 88 190 258
371 432 459 100 51 167 66 298 67 88 1 140 -4 200 -19z"/>
</g>
</svg>
