<svg xmlns="http://www.w3.org/2000/svg" xmlns:xlink="http://www.w3.org/1999/xlink" width="200" zoomAndPan="magnify" viewBox="0 0 150 149.999998" height="200" preserveAspectRatio="xMidYMid meet" version="1.0"><defs><clipPath id="4f81d4a2ff"><path d="M 0 100 L 24 100 L 24 125.863281 L 0 125.863281 Z M 0 100 " clip-rule="nonzero"/></clipPath><clipPath id="f61f8bf9a3"><path d="M 23 100 L 44 100 L 44 125.863281 L 23 125.863281 Z M 23 100 " clip-rule="nonzero"/></clipPath><clipPath id="c170d87d4e"><path d="M 44 100 L 65 100 L 65 125.863281 L 44 125.863281 Z M 44 100 " clip-rule="nonzero"/></clipPath><clipPath id="eacccb6140"><path d="M 65 100 L 86 100 L 86 125.863281 L 65 125.863281 Z M 65 100 " clip-rule="nonzero"/></clipPath><clipPath id="480511b256"><path d="M 88 100 L 106 100 L 106 125.863281 L 88 125.863281 Z M 88 100 " clip-rule="nonzero"/></clipPath><clipPath id="b20df51ac6"><path d="M 108 100 L 128 100 L 128 125.863281 L 108 125.863281 Z M 108 100 " clip-rule="nonzero"/></clipPath><clipPath id="20624941aa"><path d="M 128 100 L 150 100 L 150 125.863281 L 128 125.863281 Z M 128 100 " clip-rule="nonzero"/></clipPath><clipPath id="35aee15659"><path d="M 0 23.863281 L 150 23.863281 L 150 95 L 0 95 Z M 0 23.863281 " clip-rule="nonzero"/></clipPath></defs><g clip-path="url(#4f81d4a2ff)"><path fill="#100f0d" d="M 7.867188 100.550781 L 0.148438 125.746094 L 6.21875 125.746094 L 7.613281 121.050781 L 15.144531 121.050781 L 16.5 125.746094 L 23.105469 125.746094 L 15.386719 100.550781 Z M 9.140625 115.984375 L 11.433594 108.148438 L 13.699219 115.984375 Z M 9.140625 115.984375 " fill-opacity="1" fill-rule="nonzero"/></g><g clip-path="url(#f61f8bf9a3)"><path fill="#100f0d" d="M 37.617188 114.253906 C 37.523438 114.152344 37.433594 114.058594 37.335938 113.976562 C 37.527344 113.902344 37.710938 113.824219 37.894531 113.742188 C 38.628906 113.40625 39.273438 112.953125 39.808594 112.402344 C 40.347656 111.847656 40.773438 111.179688 41.070312 110.40625 C 41.363281 109.65625 41.515625 108.785156 41.515625 107.824219 C 41.515625 106.507812 41.277344 105.367188 40.808594 104.433594 C 40.335938 103.492188 39.648438 102.714844 38.773438 102.128906 C 37.921875 101.558594 36.886719 101.144531 35.695312 100.902344 C 34.550781 100.667969 33.261719 100.550781 31.867188 100.550781 L 23.988281 100.550781 L 23.988281 125.746094 L 30.027344 125.746094 L 30.027344 115.898438 L 30.207031 115.898438 C 30.871094 115.898438 31.421875 116.046875 31.894531 116.347656 C 32.363281 116.640625 32.722656 117.082031 32.992188 117.6875 L 36.644531 125.746094 L 43.675781 125.746094 L 39.238281 116.757812 C 38.699219 115.664062 38.171875 114.847656 37.617188 114.253906 Z M 34.988281 109.417969 C 34.8125 109.75 34.570312 110.023438 34.246094 110.253906 C 33.90625 110.488281 33.480469 110.679688 32.984375 110.800781 C 32.460938 110.929688 31.863281 110.996094 31.207031 110.996094 L 30.027344 110.996094 L 30.027344 105.691406 L 31.355469 105.691406 C 32.738281 105.691406 33.769531 105.910156 34.414062 106.339844 C 34.972656 106.714844 35.246094 107.335938 35.246094 108.261719 C 35.246094 108.707031 35.160156 109.085938 34.988281 109.417969 Z M 34.988281 109.417969 " fill-opacity="1" fill-rule="nonzero"/></g><g clip-path="url(#c170d87d4e)"><path fill="#100f0d" d="M 61.378906 103.542969 C 60.363281 102.519531 59.082031 101.757812 57.566406 101.269531 C 56.089844 100.792969 54.355469 100.550781 52.40625 100.550781 L 44.414062 100.550781 L 44.414062 125.746094 L 51.371094 125.746094 C 53.617188 125.746094 55.578125 125.4375 57.207031 124.839844 C 58.863281 124.226562 60.238281 123.339844 61.308594 122.203125 C 62.375 121.070312 63.167969 119.683594 63.671875 118.082031 C 64.160156 116.519531 64.410156 114.753906 64.410156 112.847656 C 64.410156 110.773438 64.160156 108.941406 63.667969 107.425781 C 63.167969 105.875 62.398438 104.566406 61.378906 103.542969 Z M 56.4375 118.851562 C 55.390625 120.023438 53.867188 120.585938 51.785156 120.585938 L 50.457031 120.585938 L 50.457031 105.707031 L 52.105469 105.707031 C 53.269531 105.707031 54.25 105.875 55.011719 106.195312 C 55.75 106.515625 56.324219 106.960938 56.761719 107.554688 C 57.207031 108.171875 57.53125 108.941406 57.722656 109.84375 C 57.925781 110.800781 58.027344 111.914062 58.027344 113.136719 C 58.027344 115.757812 57.492188 117.683594 56.4375 118.851562 Z M 56.4375 118.851562 " fill-opacity="1" fill-rule="nonzero"/></g><g clip-path="url(#eacccb6140)"><path fill="#100f0d" d="M 78.964844 116.578125 C 78.964844 117.445312 78.886719 118.1875 78.730469 118.78125 C 78.574219 119.335938 78.359375 119.78125 78.074219 120.121094 C 77.804688 120.445312 77.46875 120.675781 77.058594 120.816406 C 76.613281 120.980469 76.039062 121.058594 75.359375 121.058594 C 74.636719 121.058594 74.042969 120.96875 73.589844 120.78125 C 73.152344 120.605469 72.804688 120.359375 72.519531 120.015625 C 72.234375 119.671875 72.03125 119.242188 71.914062 118.730469 C 71.78125 118.164062 71.710938 117.503906 71.710938 116.757812 L 71.710938 100.550781 L 65.671875 100.550781 L 65.671875 117.035156 C 65.671875 118.394531 65.84375 119.648438 66.171875 120.746094 C 66.519531 121.894531 67.085938 122.886719 67.867188 123.691406 C 68.644531 124.5 69.660156 125.121094 70.894531 125.546875 C 72.089844 125.957031 73.535156 126.164062 75.1875 126.164062 C 76.671875 126.164062 78.023438 125.957031 79.222656 125.546875 C 80.445312 125.121094 81.5 124.488281 82.355469 123.652344 C 83.214844 122.816406 83.878906 121.761719 84.332031 120.523438 C 84.78125 119.304688 85.007812 117.882812 85.007812 116.289062 L 85.007812 100.550781 L 78.964844 100.550781 L 78.964844 116.578125 " fill-opacity="1" fill-rule="nonzero"/></g><g clip-path="url(#480511b256)"><path fill="#100f0d" d="M 88.097656 105.621094 L 93.519531 105.621094 L 93.519531 120.640625 L 88.097656 120.640625 L 88.097656 125.746094 L 105.058594 125.746094 L 105.058594 120.640625 L 99.636719 120.640625 L 99.636719 105.621094 L 105.058594 105.621094 L 105.058594 100.550781 L 88.097656 100.550781 L 88.097656 105.621094 " fill-opacity="1" fill-rule="nonzero"/></g><g clip-path="url(#b20df51ac6)"><path fill="#100f0d" d="M 121.871094 114.90625 L 115.121094 100.550781 L 108.28125 100.550781 L 108.28125 125.746094 L 113.910156 125.746094 L 113.910156 111.121094 L 120.699219 125.746094 L 127.503906 125.746094 L 127.503906 100.550781 L 121.871094 100.550781 L 121.871094 114.90625 " fill-opacity="1" fill-rule="nonzero"/></g><g clip-path="url(#20624941aa)"><path fill="#100f0d" d="M 147.066406 103.53125 C 145.300781 101.285156 142.65625 100.152344 139.203125 100.152344 C 137.726562 100.152344 136.320312 100.410156 135.019531 100.925781 C 133.703125 101.449219 132.535156 102.261719 131.558594 103.351562 C 130.582031 104.425781 129.808594 105.808594 129.261719 107.457031 C 128.722656 109.089844 128.445312 111.042969 128.445312 113.265625 C 128.445312 117.375 129.316406 120.574219 131.046875 122.773438 C 132.808594 125.023438 135.449219 126.164062 138.902344 126.164062 C 140.378906 126.164062 141.789062 125.902344 143.089844 125.386719 C 144.40625 124.863281 145.570312 124.050781 146.554688 122.96875 C 147.523438 121.894531 148.292969 120.511719 148.847656 118.859375 C 149.386719 117.230469 149.664062 115.277344 149.664062 113.046875 C 149.664062 108.925781 148.789062 105.726562 147.066406 103.53125 Z M 143.089844 116.625 C 142.914062 117.554688 142.640625 118.335938 142.285156 118.953125 C 141.941406 119.539062 141.519531 119.96875 140.996094 120.269531 C 140.472656 120.5625 139.820312 120.71875 139.054688 120.71875 C 137.542969 120.71875 136.492188 120.152344 135.839844 118.992188 C 135.113281 117.730469 134.75 115.722656 134.75 113.046875 C 134.75 111.789062 134.84375 110.660156 135.019531 109.691406 C 135.199219 108.765625 135.46875 107.984375 135.832031 107.367188 C 136.179688 106.773438 136.601562 106.34375 137.125 106.042969 C 137.644531 105.75 138.289062 105.601562 139.054688 105.601562 C 140.578125 105.601562 141.632812 106.160156 142.277344 107.3125 C 142.996094 108.585938 143.359375 110.589844 143.359375 113.265625 C 143.359375 114.53125 143.265625 115.660156 143.089844 116.625 Z M 143.089844 116.625 " fill-opacity="1" fill-rule="nonzero"/></g><path fill="#100f0d" d="M 140.9375 27.238281 L 142.007812 27.238281 L 142.007812 30.058594 L 142.765625 30.058594 L 142.765625 27.238281 L 143.847656 27.238281 L 143.847656 26.539062 L 140.9375 26.539062 L 140.9375 27.238281 " fill-opacity="1" fill-rule="nonzero"/><path fill="#100f0d" d="M 146.496094 26.539062 L 145.757812 28.9375 L 145 26.539062 L 144.007812 26.539062 L 144.007812 30.058594 L 144.722656 30.058594 L 144.722656 27.808594 L 145.4375 30.058594 L 146.089844 30.058594 L 146.757812 27.867188 L 146.757812 30.058594 L 147.472656 30.058594 L 147.472656 26.539062 L 146.496094 26.539062 " fill-opacity="1" fill-rule="nonzero"/><g clip-path="url(#35aee15659)"><path fill="#100f0d" d="M 111.507812 94.628906 C 101.929688 94.628906 93.738281 91.398438 86.527344 84.789062 C 82.074219 80.710938 78.40625 75.714844 75.03125 70.515625 C 71.652344 75.714844 67.976562 80.710938 63.527344 84.789062 C 55.785156 91.886719 46.90625 95.085938 36.390625 94.574219 C 16.335938 94.488281 0.046875 78.660156 0.046875 59.21875 C 0.046875 39.722656 16.421875 23.863281 36.554688 23.863281 C 47.570312 23.863281 56.84375 27.507812 64.910156 35.007812 C 68.777344 38.609375 72.046875 42.789062 75.03125 47.160156 C 78.011719 42.789062 81.28125 38.609375 85.152344 35.007812 C 93.214844 27.507812 102.488281 23.863281 113.503906 23.863281 C 133.632812 23.863281 150.011719 39.722656 150.011719 59.21875 C 150.011719 78.660156 133.726562 94.488281 113.667969 94.574219 C 112.9375 94.613281 112.21875 94.628906 111.507812 94.628906 Z M 82.363281 58.746094 C 86.355469 65.230469 90.238281 71.261719 94.960938 75.59375 C 100.292969 80.476562 105.910156 82.488281 113.179688 82.105469 L 113.503906 82.09375 C 126.753906 82.09375 137.53125 71.832031 137.53125 59.21875 C 137.53125 46.605469 126.753906 36.34375 113.503906 36.34375 C 105.679688 36.34375 99.371094 38.820312 93.648438 44.144531 C 89.378906 48.121094 85.851562 53.214844 82.363281 58.746094 Z M 36.554688 36.34375 C 23.304688 36.34375 12.523438 46.605469 12.523438 59.21875 C 12.523438 71.832031 23.304688 82.09375 36.554688 82.09375 L 36.882812 82.105469 C 44.148438 82.488281 49.765625 80.476562 55.097656 75.59375 C 59.820312 71.261719 63.695312 65.230469 67.695312 58.746094 C 64.207031 53.214844 60.679688 48.121094 56.40625 44.144531 C 50.683594 38.820312 44.375 36.34375 36.554688 36.34375 Z M 36.554688 36.34375 " fill-opacity="1" fill-rule="nonzero"/></g><path fill="#100f0d" d="M 115.15625 54.683594 L 115.15625 47.917969 L 108.109375 47.917969 L 108.109375 54.683594 L 101.347656 54.683594 L 101.347656 61.691406 L 108.109375 61.691406 L 108.109375 68.507812 L 115.15625 68.507812 L 115.15625 61.691406 L 121.917969 61.691406 L 121.917969 54.683594 L 115.15625 54.683594 " fill-opacity="1" fill-rule="nonzero"/><path fill="#100f0d" d="M 26.421875 54.597656 L 48.664062 54.597656 L 48.664062 61.828125 L 26.421875 61.828125 Z M 26.421875 54.597656 " fill-opacity="1" fill-rule="nonzero"/></svg>