<svg xmlns="http://www.w3.org/2000/svg" xmlns:xlink="http://www.w3.org/1999/xlink" width="200" zoomAndPan="magnify" viewBox="0 0 150 149.999998" height="200" preserveAspectRatio="xMidYMid meet" version="1.0"><defs><clipPath id="fbd33c540e"><path d="M 0 3.414062 L 146.25 3.414062 L 146.25 149.664062 L 0 149.664062 Z M 0 3.414062 " clip-rule="nonzero"/></clipPath></defs><g clip-path="url(#fbd33c540e)"><path fill="#0e91bd" d="M 138.214844 29.054688 L 72.332031 29.054688 C 71.664062 28.558594 70.835938 28.261719 69.941406 28.261719 C 67.722656 28.261719 66.335938 26.820312 65.777344 25.472656 C 65.21875 24.125 65.179688 22.125 66.75 20.554688 C 68.324219 18.984375 68.324219 16.425781 66.75 14.851562 L 62.539062 10.640625 C 61.777344 9.878906 60.765625 9.460938 59.6875 9.460938 C 58.609375 9.460938 57.597656 9.878906 56.835938 10.640625 C 55.265625 12.210938 53.265625 12.171875 51.917969 11.613281 C 50.570312 11.054688 49.128906 9.667969 49.128906 7.449219 C 49.128906 5.226562 47.320312 3.414062 45.09375 3.414062 L 39.140625 3.414062 C 36.914062 3.414062 35.105469 5.226562 35.105469 7.449219 C 35.105469 9.667969 33.667969 11.054688 32.316406 11.613281 C 30.96875 12.171875 28.96875 12.210938 27.402344 10.640625 C 26.640625 9.878906 25.625 9.460938 24.550781 9.460938 C 23.472656 9.460938 22.457031 9.878906 21.695312 10.640625 L 17.484375 14.851562 C 15.910156 16.425781 15.910156 18.984375 17.484375 20.554688 C 19.054688 22.125 19.015625 24.125 18.457031 25.472656 C 17.898438 26.820312 16.511719 28.261719 14.292969 28.261719 C 12.070312 28.261719 10.257812 30.070312 10.257812 32.296875 L 10.257812 38.25 C 10.257812 40.476562 12.070312 42.285156 14.292969 42.285156 C 16.511719 42.285156 17.898438 43.726562 18.457031 45.074219 C 19.015625 46.421875 19.054688 48.421875 17.484375 49.992188 C 16.722656 50.753906 16.304688 51.765625 16.304688 52.84375 C 16.304688 53.921875 16.722656 54.933594 17.484375 55.695312 L 21.695312 59.90625 C 22.136719 60.347656 22.660156 60.667969 23.230469 60.863281 L 23.230469 71.832031 C 22.425781 72.53125 21.910156 73.558594 21.910156 74.707031 C 21.910156 76.265625 21.046875 77.554688 19.605469 78.152344 C 18.15625 78.753906 16.636719 78.449219 15.535156 77.347656 C 14.050781 75.867188 11.640625 75.867188 10.15625 77.347656 L 6.441406 81.0625 C 5.726562 81.78125 5.328125 82.734375 5.328125 83.75 C 5.328125 84.765625 5.726562 85.722656 6.441406 86.4375 C 7.546875 87.542969 7.847656 89.0625 7.25 90.507812 C 6.648438 91.953125 5.363281 92.816406 3.800781 92.816406 C 1.707031 92.816406 0 94.523438 0 96.617188 L 0 101.871094 C 0 103.96875 1.707031 105.671875 3.800781 105.671875 C 5.363281 105.671875 6.648438 106.535156 7.25 107.980469 C 7.847656 109.425781 7.546875 110.945312 6.441406 112.050781 C 5.726562 112.765625 5.328125 113.722656 5.328125 114.738281 C 5.328125 115.753906 5.726562 116.707031 6.441406 117.425781 L 10.15625 121.140625 C 10.875 121.859375 11.832031 122.253906 12.847656 122.253906 C 13.863281 122.253906 14.816406 121.859375 15.535156 121.140625 C 16.640625 120.035156 18.160156 119.734375 19.605469 120.332031 C 21.050781 120.929688 21.910156 122.21875 21.910156 123.78125 C 21.910156 125.878906 23.617188 127.585938 25.714844 127.585938 L 30.964844 127.585938 C 33.0625 127.585938 34.769531 125.878906 34.769531 123.78125 C 34.769531 122.222656 35.628906 120.933594 37.074219 120.335938 C 38.519531 119.738281 40.042969 120.039062 41.144531 121.140625 C 41.863281 121.859375 42.816406 122.253906 43.832031 122.253906 C 44.847656 122.253906 45.804688 121.859375 46.523438 121.140625 L 48.917969 118.742188 L 67.378906 118.742188 C 67.265625 125.128906 65.738281 131.535156 64.019531 135.421875 L 57.046875 135.421875 C 53.027344 135.421875 49.757812 138.691406 49.757812 142.707031 C 49.757812 146.726562 53.027344 149.992188 57.046875 149.992188 L 112.765625 149.992188 C 116.78125 149.992188 120.050781 146.726562 120.050781 142.707031 C 120.050781 138.691406 116.78125 135.421875 112.765625 135.421875 L 105.769531 135.421875 C 103.96875 131.46875 102.34375 125.042969 102.167969 118.742188 L 135.945312 118.742188 C 141.808594 118.742188 146.578125 113.972656 146.578125 108.109375 L 146.578125 37.417969 C 146.578125 32.808594 142.828125 29.054688 138.214844 29.054688 Z M 73.976562 38.25 L 73.976562 33.210938 L 138.214844 33.210938 C 140.535156 33.210938 142.425781 35.097656 142.425781 37.417969 L 142.425781 97.566406 L 56.679688 97.566406 L 56.679688 96.617188 C 56.679688 94.523438 54.972656 92.816406 52.878906 92.816406 C 51.316406 92.816406 50.03125 91.953125 49.429688 90.507812 C 48.832031 89.0625 49.132812 87.542969 50.234375 86.441406 C 50.953125 85.722656 51.351562 84.765625 51.351562 83.75 C 51.351562 82.734375 50.953125 81.78125 50.238281 81.0625 L 46.523438 77.347656 C 45.804688 76.628906 44.847656 76.234375 43.832031 76.234375 C 42.816406 76.234375 41.863281 76.628906 41.144531 77.347656 C 40.042969 78.453125 38.519531 78.753906 37.074219 78.152344 C 35.628906 77.554688 34.769531 76.265625 34.769531 74.707031 C 34.769531 72.609375 33.0625 70.90625 30.964844 70.90625 L 27.386719 70.90625 L 27.386719 59.917969 C 27.390625 59.914062 27.394531 59.910156 27.398438 59.90625 C 28.972656 58.335938 30.972656 58.371094 32.320312 58.929688 C 33.667969 59.484375 35.105469 60.875 35.105469 63.097656 C 35.105469 65.324219 36.914062 67.132812 39.140625 67.132812 L 45.09375 67.132812 C 47.320312 67.132812 49.128906 65.324219 49.128906 63.097656 C 49.128906 60.878906 50.570312 59.492188 51.917969 58.933594 C 53.265625 58.375 55.265625 58.335938 56.835938 59.90625 C 57.597656 60.667969 58.609375 61.089844 59.6875 61.089844 C 60.765625 61.089844 61.777344 60.667969 62.539062 59.90625 L 66.75 55.695312 C 67.511719 54.933594 67.929688 53.921875 67.929688 52.84375 C 67.929688 51.765625 67.511719 50.753906 66.75 49.992188 C 65.179688 48.421875 65.21875 46.421875 65.777344 45.074219 C 66.335938 43.726562 67.722656 42.285156 69.941406 42.285156 C 72.167969 42.285156 73.976562 40.476562 73.976562 38.25 Z M 20.507812 52.84375 C 22.960938 50.324219 23.648438 46.75 22.296875 43.484375 C 20.945312 40.21875 17.929688 38.175781 14.414062 38.132812 L 14.414062 32.414062 C 17.929688 32.371094 20.945312 30.328125 22.296875 27.0625 C 23.648438 23.800781 22.960938 20.222656 20.507812 17.703125 L 24.546875 13.664062 C 27.066406 16.117188 30.644531 16.804688 33.90625 15.453125 C 37.171875 14.097656 39.214844 11.085938 39.257812 7.570312 L 44.976562 7.570312 C 45.019531 11.085938 47.0625 14.097656 50.328125 15.453125 C 53.59375 16.804688 57.167969 16.117188 59.6875 13.664062 L 63.730469 17.703125 C 61.273438 20.222656 60.585938 23.800781 61.9375 27.0625 C 63.292969 30.328125 66.304688 32.371094 69.820312 32.414062 L 69.820312 38.132812 C 66.304688 38.175781 63.292969 40.21875 61.9375 43.484375 C 60.585938 46.75 61.273438 50.324219 63.730469 52.84375 L 59.6875 56.882812 C 57.167969 54.429688 53.59375 53.742188 50.328125 55.09375 C 47.0625 56.449219 45.019531 59.460938 44.976562 62.976562 L 39.257812 62.976562 C 39.214844 59.457031 37.171875 56.441406 33.910156 55.089844 C 30.644531 53.738281 27.070312 54.425781 24.546875 56.882812 Z M 45.59375 106.390625 C 44.394531 109.285156 44.957031 112.449219 47.054688 114.734375 L 43.828125 117.960938 C 41.546875 115.863281 38.382812 115.296875 35.484375 116.496094 C 32.589844 117.699219 30.75 120.332031 30.621094 123.429688 L 26.058594 123.429688 C 25.929688 120.328125 24.089844 117.691406 21.195312 116.492188 C 18.300781 115.292969 15.132812 115.859375 12.851562 117.960938 L 9.625 114.734375 C 11.722656 112.453125 12.285156 109.289062 11.085938 106.390625 C 9.886719 103.496094 7.25 101.65625 4.15625 101.527344 L 4.15625 96.964844 C 7.25 96.832031 9.886719 94.996094 11.085938 92.097656 C 12.285156 89.203125 11.722656 86.039062 9.625 83.757812 L 12.851562 80.527344 C 15.132812 82.628906 18.296875 83.191406 21.191406 81.992188 C 24.089844 80.792969 25.929688 78.15625 26.058594 75.058594 L 30.621094 75.058594 C 30.75 78.15625 32.589844 80.792969 35.488281 81.992188 C 38.382812 83.191406 41.546875 82.628906 43.828125 80.527344 L 47.054688 83.757812 C 44.957031 86.039062 44.394531 89.203125 45.59375 92.097656 C 46.792969 94.996094 49.429688 96.832031 52.527344 96.964844 L 52.527344 101.527344 C 49.429688 101.65625 46.792969 103.496094 45.59375 106.390625 Z M 115.898438 142.707031 C 115.898438 144.433594 114.492188 145.839844 112.765625 145.839844 L 57.046875 145.839844 C 55.320312 145.839844 53.914062 144.433594 53.914062 142.707031 C 53.914062 140.980469 55.316406 139.578125 57.046875 139.578125 L 112.765625 139.578125 C 114.492188 139.578125 115.898438 140.980469 115.898438 142.707031 Z M 101.261719 135.421875 L 68.507812 135.421875 C 70.289062 130.679688 71.433594 124.445312 71.535156 118.742188 L 98.015625 118.742188 C 98.164062 124.378906 99.390625 130.621094 101.261719 135.421875 Z M 135.945312 114.589844 L 51.34375 114.589844 C 51.304688 113.628906 50.917969 112.730469 50.234375 112.050781 C 49.132812 110.945312 48.832031 109.425781 49.429688 107.980469 C 50.027344 106.535156 51.316406 105.671875 52.878906 105.671875 C 54.972656 105.671875 56.679688 103.96875 56.679688 101.871094 L 56.679688 101.722656 L 142.425781 101.722656 L 142.425781 108.109375 C 142.425781 111.683594 139.515625 114.589844 135.945312 114.589844 Z M 91.6875 108.15625 C 91.6875 109.304688 90.757812 110.234375 89.609375 110.234375 L 80.199219 110.234375 C 79.054688 110.234375 78.125 109.304688 78.125 108.15625 C 78.125 107.007812 79.054688 106.078125 80.199219 106.078125 L 89.609375 106.078125 C 90.757812 106.078125 91.6875 107.007812 91.6875 108.15625 Z M 42.117188 51.660156 C 51.152344 51.660156 58.503906 44.308594 58.503906 35.273438 C 58.503906 26.238281 51.152344 18.886719 42.117188 18.886719 C 33.082031 18.886719 25.730469 26.238281 25.730469 35.273438 C 25.730469 44.308594 33.082031 51.660156 42.117188 51.660156 Z M 42.117188 23.042969 C 48.863281 23.042969 54.351562 28.527344 54.351562 35.273438 C 54.351562 42.019531 48.863281 47.507812 42.117188 47.507812 C 35.371094 47.507812 29.886719 42.019531 29.886719 35.273438 C 29.886719 28.527344 35.371094 23.042969 42.117188 23.042969 Z M 28.339844 84.550781 C 20.238281 84.550781 13.644531 91.140625 13.644531 99.246094 C 13.644531 107.347656 20.238281 113.941406 28.339844 113.941406 C 36.441406 113.941406 43.035156 107.347656 43.035156 99.246094 C 43.035156 91.140625 36.441406 84.550781 28.339844 84.550781 Z M 28.339844 109.785156 C 22.527344 109.785156 17.796875 105.058594 17.796875 99.246094 C 17.796875 93.433594 22.527344 88.703125 28.339844 88.703125 C 34.152344 88.703125 38.882812 93.433594 38.882812 99.246094 C 38.882812 105.058594 34.152344 109.785156 28.339844 109.785156 Z M 97.871094 93.757812 C 105.285156 93.757812 111.316406 87.726562 111.316406 80.316406 C 111.316406 72.902344 105.285156 66.871094 97.871094 66.871094 C 90.460938 66.871094 84.429688 72.902344 84.429688 80.316406 C 84.429688 87.726562 90.460938 93.757812 97.871094 93.757812 Z M 97.871094 71.027344 C 102.992188 71.027344 107.160156 75.191406 107.160156 80.316406 C 107.160156 85.4375 102.992188 89.605469 97.871094 89.605469 C 92.75 89.605469 88.582031 85.4375 88.582031 80.316406 C 88.582031 75.191406 92.75 71.027344 97.871094 71.027344 Z M 92.863281 82.386719 L 94.933594 80.316406 L 92.863281 78.242188 C 92.050781 77.429688 92.050781 76.117188 92.863281 75.304688 C 93.671875 74.492188 94.988281 74.492188 95.800781 75.304688 L 97.871094 77.378906 L 99.945312 75.304688 C 100.753906 74.492188 102.070312 74.492188 102.882812 75.304688 C 103.691406 76.117188 103.691406 77.429688 102.882812 78.242188 L 100.808594 80.316406 L 102.882812 82.386719 C 103.691406 83.199219 103.691406 84.515625 102.882812 85.324219 C 102.476562 85.730469 101.945312 85.933594 101.414062 85.933594 C 100.882812 85.933594 100.347656 85.730469 99.945312 85.324219 L 97.871094 83.253906 L 95.800781 85.324219 C 94.988281 86.136719 93.671875 86.136719 92.863281 85.324219 C 92.050781 84.515625 92.050781 83.199219 92.863281 82.386719 Z M 97.871094 63.25 C 105.285156 63.25 111.316406 57.21875 111.316406 49.804688 C 111.316406 42.394531 105.285156 36.363281 97.871094 36.363281 C 90.460938 36.363281 84.429688 42.394531 84.429688 49.804688 C 84.429688 57.21875 90.460938 63.25 97.871094 63.25 Z M 97.871094 40.515625 C 102.992188 40.515625 107.160156 44.683594 107.160156 49.804688 C 107.160156 54.929688 102.992188 59.09375 97.871094 59.09375 C 92.75 59.09375 88.582031 54.929688 88.582031 49.804688 C 88.582031 44.683594 92.75 40.515625 97.871094 40.515625 Z M 91.527344 50.695312 C 90.847656 49.773438 91.039062 48.472656 91.960938 47.789062 C 92.882812 47.105469 94.183594 47.300781 94.867188 48.222656 L 96.519531 50.453125 L 100.808594 46.660156 C 101.664062 45.898438 102.976562 45.980469 103.738281 46.835938 C 104.5 47.695312 104.417969 49.007812 103.5625 49.769531 L 97.578125 55.066406 C 97.195312 55.40625 96.707031 55.589844 96.199219 55.589844 C 96.128906 55.589844 96.058594 55.585938 95.984375 55.578125 C 95.40625 55.519531 94.878906 55.214844 94.53125 54.75 Z M 91.527344 50.695312 " fill-opacity="1" fill-rule="nonzero"/></g></svg>