<svg xmlns="http://www.w3.org/2000/svg" xmlns:xlink="http://www.w3.org/1999/xlink" width="200" zoomAndPan="magnify" viewBox="0 0 150 149.999998" height="200" preserveAspectRatio="xMidYMid meet" version="1.0"><defs><clipPath id="072039a0b0"><path d="M 0 3.414062 L 146.25 3.414062 L 146.25 149.664062 L 0 149.664062 Z M 0 3.414062 " clip-rule="nonzero"/></clipPath></defs><g clip-path="url(#072039a0b0)"><path fill="#000000" d="M 137.90625 28.996094 L 72.171875 28.996094 C 71.503906 28.503906 70.679688 28.207031 69.785156 28.207031 C 67.570312 28.207031 66.1875 26.769531 65.628906 25.425781 C 65.074219 24.078125 65.035156 22.085938 66.601562 20.519531 C 68.171875 18.949219 68.171875 16.394531 66.601562 14.828125 L 62.398438 10.625 C 61.640625 9.863281 60.628906 9.445312 59.554688 9.445312 C 58.476562 9.445312 57.46875 9.863281 56.707031 10.625 C 55.140625 12.191406 53.148438 12.152344 51.800781 11.597656 C 50.457031 11.039062 49.019531 9.65625 49.019531 7.441406 C 49.019531 5.222656 47.214844 3.414062 44.996094 3.414062 L 39.050781 3.414062 C 36.832031 3.414062 35.027344 5.222656 35.027344 7.441406 C 35.027344 9.65625 33.589844 11.039062 32.246094 11.597656 C 30.902344 12.152344 28.90625 12.191406 27.339844 10.625 C 26.578125 9.863281 25.570312 9.445312 24.492188 9.445312 C 23.417969 9.445312 22.410156 9.863281 21.648438 10.625 L 17.445312 14.828125 C 15.875 16.394531 15.875 18.949219 17.445312 20.519531 C 19.011719 22.082031 18.972656 24.078125 18.417969 25.425781 C 17.859375 26.769531 16.476562 28.207031 14.261719 28.207031 C 12.042969 28.207031 10.234375 30.011719 10.234375 32.230469 L 10.234375 38.171875 C 10.234375 40.390625 12.042969 42.199219 14.261719 42.199219 C 16.476562 42.199219 17.859375 43.632812 18.417969 44.980469 C 18.972656 46.324219 19.011719 48.320312 17.445312 49.886719 C 16.683594 50.644531 16.265625 51.65625 16.265625 52.730469 C 16.265625 53.808594 16.683594 54.816406 17.445312 55.578125 L 21.648438 59.78125 C 22.085938 60.21875 22.609375 60.539062 23.179688 60.734375 L 23.179688 71.679688 C 22.375 72.375 21.863281 73.402344 21.863281 74.546875 C 21.863281 76.105469 21 77.390625 19.558594 77.984375 C 18.117188 78.582031 16.601562 78.28125 15.5 77.183594 C 14.019531 75.703125 11.613281 75.703125 10.136719 77.183594 L 6.429688 80.886719 C 5.710938 81.605469 5.316406 82.558594 5.316406 83.570312 C 5.316406 84.585938 5.710938 85.539062 6.429688 86.253906 C 7.53125 87.355469 7.828125 88.871094 7.234375 90.3125 C 6.636719 91.753906 5.351562 92.617188 3.792969 92.617188 C 1.703125 92.617188 0 94.316406 0 96.410156 L 0 101.648438 C 0 103.742188 1.703125 105.445312 3.792969 105.445312 C 5.351562 105.445312 6.636719 106.304688 7.230469 107.746094 C 7.828125 109.1875 7.527344 110.707031 6.429688 111.804688 C 5.710938 112.523438 5.316406 113.476562 5.316406 114.488281 C 5.316406 115.503906 5.710938 116.457031 6.429688 117.171875 L 10.132812 120.878906 C 10.851562 121.59375 11.804688 121.988281 12.816406 121.988281 C 13.832031 121.988281 14.785156 121.59375 15.5 120.878906 C 16.601562 119.773438 18.121094 119.472656 19.5625 120.070312 C 21.003906 120.667969 21.863281 121.953125 21.863281 123.511719 C 21.863281 125.605469 23.5625 127.304688 25.65625 127.304688 L 30.894531 127.304688 C 32.988281 127.304688 34.691406 125.605469 34.691406 123.511719 C 34.691406 121.957031 35.550781 120.671875 36.992188 120.074219 C 38.433594 119.476562 39.953125 119.777344 41.050781 120.878906 C 41.769531 121.59375 42.722656 121.988281 43.734375 121.988281 C 44.75 121.988281 45.703125 121.59375 46.417969 120.878906 L 48.808594 118.484375 L 67.230469 118.484375 C 67.113281 124.855469 65.589844 131.25 63.875 135.125 L 56.917969 135.125 C 52.910156 135.125 49.648438 138.386719 49.648438 142.394531 C 49.648438 146.402344 52.910156 149.664062 56.917969 149.664062 L 112.511719 149.664062 C 116.519531 149.664062 119.78125 146.402344 119.78125 142.394531 C 119.78125 138.386719 116.519531 135.125 112.511719 135.125 L 105.535156 135.125 C 103.738281 131.183594 102.113281 124.769531 101.941406 118.484375 L 135.640625 118.484375 C 141.488281 118.484375 146.25 113.726562 146.25 107.875 L 146.25 37.34375 C 146.25 32.742188 142.507812 28.996094 137.90625 28.996094 Z M 73.808594 38.171875 L 73.808594 33.140625 L 137.90625 33.140625 C 140.222656 33.140625 142.105469 35.027344 142.105469 37.34375 L 142.105469 97.359375 L 56.554688 97.359375 L 56.554688 96.410156 C 56.554688 94.316406 54.851562 92.617188 52.757812 92.617188 C 51.203125 92.617188 49.917969 91.753906 49.320312 90.3125 C 48.722656 88.871094 49.023438 87.355469 50.125 86.253906 C 50.839844 85.539062 51.234375 84.585938 51.234375 83.570312 C 51.234375 82.558594 50.839844 81.605469 50.125 80.890625 L 46.417969 77.183594 C 45.703125 76.464844 44.75 76.070312 43.734375 76.070312 C 42.722656 76.070312 41.769531 76.464844 41.050781 77.183594 C 39.953125 78.285156 38.433594 78.582031 36.992188 77.988281 C 35.550781 77.390625 34.691406 76.105469 34.691406 74.546875 C 34.691406 72.457031 32.988281 70.753906 30.898438 70.753906 L 27.324219 70.753906 L 27.324219 59.792969 C 27.328125 59.789062 27.332031 59.785156 27.339844 59.78125 C 28.910156 58.210938 30.902344 58.246094 32.246094 58.804688 C 33.589844 59.359375 35.027344 60.746094 35.027344 62.964844 C 35.027344 65.183594 36.832031 66.988281 39.050781 66.988281 L 44.996094 66.988281 C 47.214844 66.988281 49.019531 65.183594 49.019531 62.964844 C 49.019531 60.75 50.457031 59.367188 51.800781 58.808594 C 53.148438 58.25 55.140625 58.214844 56.707031 59.78125 C 57.46875 60.539062 58.476562 60.960938 59.554688 60.960938 C 60.628906 60.960938 61.640625 60.539062 62.398438 59.78125 L 66.601562 55.578125 C 67.359375 54.816406 67.78125 53.808594 67.78125 52.734375 C 67.78125 51.65625 67.359375 50.648438 66.601562 49.886719 C 65.035156 48.320312 65.074219 46.324219 65.628906 44.980469 C 66.1875 43.636719 67.570312 42.199219 69.785156 42.199219 C 72.003906 42.199219 73.808594 40.390625 73.808594 38.171875 Z M 20.460938 52.730469 C 22.910156 50.21875 23.59375 46.652344 22.246094 43.394531 C 20.898438 40.136719 17.890625 38.101562 14.382812 38.054688 L 14.382812 32.351562 C 17.890625 32.304688 20.898438 30.265625 22.246094 27.011719 C 23.59375 23.753906 22.910156 20.1875 20.460938 17.671875 L 24.492188 13.640625 C 27.007812 16.089844 30.574219 16.773438 33.832031 15.425781 C 37.089844 14.074219 39.125 11.070312 39.171875 7.558594 L 44.875 7.558594 C 44.921875 11.070312 46.957031 14.074219 50.214844 15.425781 C 53.472656 16.773438 57.039062 16.089844 59.554688 13.640625 L 63.585938 17.671875 C 61.136719 20.1875 60.453125 23.753906 61.800781 27.011719 C 63.148438 30.265625 66.15625 32.304688 69.664062 32.351562 L 69.664062 38.054688 C 66.15625 38.097656 63.148438 40.136719 61.800781 43.394531 C 60.453125 46.652344 61.136719 50.21875 63.585938 52.730469 L 59.554688 56.765625 C 57.039062 54.316406 53.472656 53.628906 50.214844 54.980469 C 46.957031 56.328125 44.921875 59.335938 44.875 62.84375 L 39.171875 62.84375 C 39.125 59.332031 37.089844 56.324219 33.832031 54.976562 C 30.578125 53.625 27.011719 54.3125 24.492188 56.765625 Z M 45.492188 106.160156 C 44.292969 109.050781 44.855469 112.207031 46.949219 114.484375 L 43.730469 117.703125 C 41.453125 115.609375 38.296875 115.046875 35.40625 116.246094 C 32.515625 117.441406 30.683594 120.070312 30.554688 123.160156 L 26 123.160156 C 25.871094 120.066406 24.035156 117.4375 21.148438 116.242188 C 18.257812 115.042969 15.101562 115.605469 12.824219 117.703125 L 9.601562 114.484375 C 11.695312 112.207031 12.257812 109.050781 11.0625 106.160156 C 9.863281 103.269531 7.234375 101.4375 4.144531 101.304688 L 4.144531 96.753906 C 7.234375 96.625 9.863281 94.789062 11.0625 91.898438 C 12.257812 89.011719 11.695312 85.851562 9.601562 83.578125 L 12.824219 80.355469 C 15.097656 82.449219 18.257812 83.011719 21.144531 81.816406 C 24.035156 80.617188 25.871094 77.988281 26 74.898438 L 30.554688 74.898438 C 30.683594 77.988281 32.515625 80.617188 35.40625 81.816406 C 38.296875 83.011719 41.453125 82.449219 43.730469 80.355469 L 46.949219 83.578125 C 44.855469 85.851562 44.292969 89.011719 45.492188 91.898438 C 46.6875 94.789062 49.316406 96.625 52.40625 96.753906 L 52.40625 101.304688 C 49.316406 101.4375 46.6875 103.269531 45.492188 106.160156 Z M 115.636719 142.394531 C 115.636719 144.117188 114.234375 145.519531 112.511719 145.519531 L 56.917969 145.519531 C 55.195312 145.519531 53.792969 144.117188 53.792969 142.394531 C 53.792969 140.671875 55.195312 139.269531 56.917969 139.269531 L 112.511719 139.269531 C 114.234375 139.269531 115.636719 140.671875 115.636719 142.394531 Z M 101.035156 135.125 L 68.351562 135.125 C 70.128906 130.398438 71.273438 124.175781 71.375 118.484375 L 97.796875 118.484375 C 97.945312 124.109375 99.167969 130.335938 101.035156 135.125 Z M 135.640625 114.339844 L 51.226562 114.339844 C 51.191406 113.382812 50.804688 112.488281 50.125 111.808594 C 49.023438 110.707031 48.722656 109.1875 49.320312 107.746094 C 49.917969 106.304688 51.203125 105.445312 52.757812 105.445312 C 54.851562 105.445312 56.550781 103.742188 56.550781 101.652344 L 56.550781 101.503906 L 142.105469 101.503906 L 142.105469 107.875 C 142.105469 111.441406 139.203125 114.339844 135.640625 114.339844 Z M 91.480469 107.921875 C 91.480469 109.066406 90.550781 109.992188 89.40625 109.992188 L 80.019531 109.992188 C 78.875 109.992188 77.949219 109.066406 77.949219 107.921875 C 77.949219 106.777344 78.875 105.847656 80.019531 105.847656 L 89.40625 105.847656 C 90.554688 105.847656 91.480469 106.777344 91.480469 107.921875 Z M 42.023438 51.550781 C 51.039062 51.550781 58.371094 44.21875 58.371094 35.203125 C 58.371094 26.1875 51.039062 18.851562 42.023438 18.851562 C 33.007812 18.851562 25.671875 26.1875 25.671875 35.203125 C 25.671875 44.21875 33.007812 51.550781 42.023438 51.550781 Z M 42.023438 22.996094 C 48.753906 22.996094 54.226562 28.472656 54.226562 35.203125 C 54.226562 41.933594 48.753906 47.40625 42.023438 47.40625 C 35.292969 47.40625 29.820312 41.933594 29.820312 35.203125 C 29.820312 28.472656 35.292969 22.996094 42.023438 22.996094 Z M 28.277344 84.367188 C 20.191406 84.367188 13.613281 90.945312 13.613281 99.03125 C 13.613281 107.113281 20.191406 113.691406 28.277344 113.691406 C 36.359375 113.691406 42.9375 107.113281 42.9375 99.03125 C 42.9375 90.945312 36.363281 84.367188 28.277344 84.367188 Z M 28.277344 109.546875 C 22.476562 109.546875 17.757812 104.828125 17.757812 99.03125 C 17.757812 93.230469 22.476562 88.511719 28.277344 88.511719 C 34.074219 88.511719 38.792969 93.230469 38.792969 99.03125 C 38.792969 104.828125 34.074219 109.546875 28.277344 109.546875 Z M 97.652344 93.554688 C 105.046875 93.554688 111.066406 87.539062 111.066406 80.144531 C 111.066406 72.746094 105.046875 66.730469 97.652344 66.730469 C 90.257812 66.730469 84.238281 72.746094 84.238281 80.144531 C 84.238281 87.539062 90.257812 93.554688 97.652344 93.554688 Z M 97.652344 70.875 C 102.761719 70.875 106.921875 75.03125 106.921875 80.144531 C 106.921875 85.253906 102.761719 89.410156 97.652344 89.410156 C 92.542969 89.410156 88.382812 85.253906 88.382812 80.144531 C 88.382812 75.03125 92.542969 70.875 97.652344 70.875 Z M 92.652344 82.210938 L 94.722656 80.144531 L 92.652344 78.074219 C 91.84375 77.265625 91.84375 75.953125 92.652344 75.144531 C 93.464844 74.335938 94.773438 74.335938 95.585938 75.144531 L 97.652344 77.210938 L 99.71875 75.144531 C 100.53125 74.335938 101.84375 74.335938 102.652344 75.144531 C 103.460938 75.953125 103.460938 77.265625 102.652344 78.074219 L 100.582031 80.144531 L 102.652344 82.210938 C 103.460938 83.019531 103.460938 84.332031 102.652344 85.140625 C 102.246094 85.546875 101.714844 85.75 101.1875 85.75 C 100.65625 85.75 100.125 85.546875 99.71875 85.140625 L 97.652344 83.074219 L 95.585938 85.140625 C 94.773438 85.949219 93.464844 85.949219 92.652344 85.140625 C 91.84375 84.332031 91.84375 83.019531 92.652344 82.210938 Z M 97.652344 63.113281 C 105.046875 63.113281 111.066406 57.097656 111.066406 49.703125 C 111.066406 42.304688 105.046875 36.289062 97.652344 36.289062 C 90.257812 36.289062 84.238281 42.304688 84.238281 49.703125 C 84.238281 57.097656 90.257812 63.113281 97.652344 63.113281 Z M 97.652344 40.433594 C 102.761719 40.433594 106.921875 44.589844 106.921875 49.703125 C 106.921875 54.8125 102.761719 58.972656 97.652344 58.972656 C 92.542969 58.972656 88.382812 54.8125 88.382812 49.703125 C 88.382812 44.589844 92.542969 40.433594 97.652344 40.433594 Z M 91.324219 50.589844 C 90.644531 49.667969 90.835938 48.371094 91.757812 47.6875 C 92.675781 47.007812 93.972656 47.203125 94.65625 48.121094 L 96.304688 50.351562 L 100.582031 46.5625 C 101.4375 45.804688 102.746094 45.882812 103.507812 46.742188 C 104.265625 47.597656 104.1875 48.90625 103.328125 49.664062 L 97.359375 54.953125 C 96.980469 55.289062 96.488281 55.472656 95.984375 55.472656 C 95.914062 55.472656 95.84375 55.46875 95.769531 55.460938 C 95.191406 55.402344 94.664062 55.101562 94.320312 54.632812 Z M 91.324219 50.589844 " fill-opacity="1" fill-rule="nonzero"/></g></svg>