<svg xmlns="http://www.w3.org/2000/svg" xmlns:xlink="http://www.w3.org/1999/xlink" width="200" zoomAndPan="magnify" viewBox="0 0 150 149.999998" height="200" preserveAspectRatio="xMidYMid meet" version="1.0"><defs><clipPath id="2ca3c4d094"><path d="M 16.65625 0 L 133.65625 0 L 133.65625 150 L 16.65625 150 Z M 16.65625 0 " clip-rule="nonzero"/></clipPath></defs><g clip-path="url(#2ca3c4d094)"><path fill="#0e91bd" d="M 77.675781 144.371094 C 77.21875 144.394531 76.753906 144.417969 76.292969 144.429688 C 75.863281 144.4375 75.429688 144.445312 74.996094 144.445312 C 69.125 144.445312 63.496094 143.394531 58.285156 141.476562 C 55.875 140.589844 53.554688 139.515625 51.34375 138.273438 C 48.941406 136.929688 46.675781 135.390625 44.546875 133.667969 C 42.066406 131.65625 39.78125 129.398438 37.738281 126.945312 C 36.4375 125.378906 35.230469 123.726562 34.136719 122.003906 C 32.347656 119.199219 30.84375 116.207031 29.652344 113.050781 C 29.203125 111.851562 28.796875 110.632812 28.441406 109.394531 C 27.640625 106.601562 27.082031 103.707031 26.792969 100.726562 C 26.640625 99.179688 26.570312 97.605469 26.570312 96.015625 L 26.570312 53.984375 C 26.570312 27.253906 48.269531 5.554688 75 5.554688 C 101.726562 5.554688 123.425781 27.253906 123.425781 53.984375 L 123.425781 96.015625 C 123.425781 121.84375 103.160156 142.976562 77.675781 144.371094 Z M 85.992188 137.460938 C 104.335938 132.605469 117.871094 115.878906 117.871094 96.015625 L 117.871094 53.984375 C 117.871094 30.320312 98.660156 11.109375 74.996094 11.109375 C 51.335938 11.109375 32.125 30.320312 32.125 53.984375 L 32.125 88.910156 C 35.519531 85.996094 37.179688 83.332031 37.746094 80.398438 C 39.9375 69.039062 39.121094 55.394531 39.121094 53.984375 C 39.121094 37.210938 55.199219 18.109375 74.996094 18.109375 C 94.269531 18.109375 110.007812 33.34375 110.835938 52.417969 C 111.066406 55.789062 112.035156 72.976562 109.363281 90.832031 C 106.308594 111.199219 98.316406 125.042969 85.992188 137.460938 Z M 65.757812 137.890625 C 68.730469 138.542969 71.824219 138.890625 74.996094 138.890625 C 75.382812 138.890625 76.332031 138.867188 76.425781 138.859375 C 91.097656 125.8125 100.582031 111.964844 103.871094 90.003906 C 106.464844 72.65625 105.507812 55.949219 105.292969 52.761719 C 105.292969 52.738281 105.285156 52.710938 105.285156 52.6875 C 104.605469 36.554688 91.296875 23.667969 75 23.667969 C 58.265625 23.667969 44.675781 39.8125 44.675781 53.984375 C 44.675781 55.457031 45.476562 69.640625 43.203125 81.457031 C 42.277344 86.265625 39.382812 90.792969 32.125 95.910156 L 32.125 96.015625 C 32.125 97.421875 32.191406 98.816406 32.324219 100.195312 C 32.460938 101.566406 32.652344 102.917969 32.914062 104.25 C 45.253906 96.292969 49.308594 89.464844 50.582031 82.871094 C 52.976562 70.445312 52.191406 55.527344 52.191406 53.984375 C 52.191406 43.320312 62.414062 31.183594 75 31.183594 C 87.304688 31.183594 97.34375 40.949219 97.785156 53.148438 L 97.796875 53.277344 C 98.003906 56.320312 98.921875 72.300781 96.4375 88.894531 C 93.253906 110.128906 83.605469 122.960938 68.816406 135.515625 C 67.929688 136.273438 66.910156 137.0625 65.757812 137.890625 Z M 58.949219 135.777344 C 61.480469 134.167969 63.609375 132.648438 65.21875 131.285156 C 78.941406 119.632812 87.988281 107.777344 90.941406 88.070312 C 93.34375 72.039062 92.453125 56.601562 92.253906 53.65625 C 92.246094 53.601562 92.246094 53.542969 92.242188 53.496094 C 92.238281 53.460938 92.238281 53.429688 92.238281 53.390625 C 91.925781 44.144531 84.320312 36.738281 74.996094 36.738281 C 65.476562 36.738281 57.746094 45.921875 57.746094 53.984375 C 57.746094 55.582031 58.519531 71.042969 56.035156 83.929688 C 54.519531 91.785156 49.921875 100.25 34.414062 109.871094 C 34.554688 110.285156 34.703125 110.6875 34.855469 111.09375 C 35.585938 113.035156 36.453125 114.910156 37.441406 116.707031 C 56.527344 105.050781 61.554688 94.523438 63.324219 85.328125 C 65.925781 71.839844 65.171875 55.660156 65.171875 53.984375 C 65.171875 49.394531 69.574219 44.160156 74.996094 44.160156 C 80.421875 44.160156 84.824219 48.5625 84.824219 53.984375 C 84.824219 54.011719 86.121094 70.144531 83.597656 86.972656 C 80.953125 104.632812 72.714844 115.183594 60.414062 125.628906 C 58.246094 127.464844 55.164062 129.566406 51.390625 131.800781 C 52.257812 132.378906 53.148438 132.917969 54.058594 133.429688 C 55.632812 134.3125 57.265625 135.101562 58.949219 135.777344 Z M 46.625 128.144531 C 50.953125 125.6875 54.476562 123.382812 56.820312 121.390625 C 68.054688 111.851562 75.6875 102.285156 78.105469 86.148438 C 80.566406 69.738281 79.269531 54.011719 79.269531 53.984375 C 79.269531 51.628906 77.355469 49.714844 74.996094 49.714844 C 72.640625 49.714844 70.726562 51.988281 70.726562 53.984375 C 70.726562 55.714844 71.464844 72.4375 68.78125 86.378906 C 66.820312 96.550781 61.558594 108.464844 40.441406 121.382812 C 40.949219 122.066406 41.46875 122.738281 42.007812 123.390625 C 43.425781 125.09375 44.96875 126.683594 46.625 128.144531 Z M 108.332031 5.554688 C 106.796875 5.554688 105.554688 4.3125 105.554688 2.777344 C 105.554688 1.246094 106.796875 0 108.332031 0 L 122.21875 0 C 125.164062 0 127.992188 1.171875 130.074219 3.253906 C 132.160156 5.339844 133.332031 8.167969 133.332031 11.109375 L 133.332031 25 C 133.332031 26.535156 132.085938 27.777344 130.554688 27.777344 C 129.019531 27.777344 127.777344 26.535156 127.777344 25 L 127.777344 11.109375 C 127.777344 9.640625 127.191406 8.222656 126.148438 7.183594 C 125.109375 6.140625 123.691406 5.554688 122.21875 5.554688 Z M 108.332031 150 C 106.796875 150 105.554688 148.753906 105.554688 147.222656 C 105.554688 145.6875 106.796875 144.445312 108.332031 144.445312 L 122.21875 144.445312 C 123.691406 144.445312 125.109375 143.859375 126.148438 142.816406 C 127.191406 141.777344 127.777344 140.359375 127.777344 138.890625 L 127.777344 125 C 127.777344 123.464844 129.019531 122.222656 130.554688 122.222656 C 132.085938 122.222656 133.332031 123.464844 133.332031 125 L 133.332031 138.890625 C 133.332031 141.832031 132.160156 144.660156 130.074219 146.746094 C 127.992188 148.828125 125.164062 150 122.21875 150 Z M 41.664062 0 C 43.199219 0 44.441406 1.246094 44.441406 2.777344 C 44.441406 4.3125 43.199219 5.554688 41.664062 5.554688 L 27.777344 5.554688 C 26.304688 5.554688 24.886719 6.140625 23.847656 7.183594 C 22.804688 8.222656 22.21875 9.640625 22.21875 11.109375 L 22.21875 25 C 22.21875 26.535156 20.976562 27.777344 19.441406 27.777344 C 17.910156 27.777344 16.664062 26.535156 16.664062 25 L 16.664062 11.109375 C 16.664062 8.167969 17.835938 5.339844 19.921875 3.253906 C 22.003906 1.171875 24.832031 0 27.777344 0 Z M 41.664062 144.445312 C 43.199219 144.445312 44.441406 145.6875 44.441406 147.222656 C 44.441406 148.753906 43.199219 150 41.664062 150 L 27.777344 150 C 24.832031 150 22.003906 148.828125 19.921875 146.746094 C 17.835938 144.660156 16.664062 141.832031 16.664062 138.890625 L 16.664062 125 C 16.664062 123.464844 17.910156 122.222656 19.441406 122.222656 C 20.976562 122.222656 22.21875 123.464844 22.21875 125 L 22.21875 138.890625 C 22.21875 140.359375 22.804688 141.777344 23.847656 142.816406 C 24.886719 143.859375 26.304688 144.445312 27.777344 144.445312 Z M 41.664062 144.445312 " fill-opacity="1" fill-rule="evenodd"/></g></svg>