<svg xmlns="http://www.w3.org/2000/svg" xmlns:xlink="http://www.w3.org/1999/xlink" width="200" zoomAndPan="magnify" viewBox="0 0 150 149.999998" height="200" preserveAspectRatio="xMidYMid meet" version="1.0"><defs><clipPath id="b4681c7b99"><path d="M 16.65625 0 L 133.65625 0 L 133.65625 150 L 16.65625 150 Z M 16.65625 0 " clip-rule="nonzero"/></clipPath></defs><g clip-path="url(#b4681c7b99)"><path fill="#000000" d="M 77.839844 144.371094 C 77.382812 144.394531 76.917969 144.417969 76.453125 144.429688 C 76.023438 144.4375 75.589844 144.445312 75.15625 144.445312 C 69.269531 144.445312 63.625 143.394531 58.398438 141.476562 C 55.980469 140.589844 53.652344 139.515625 51.4375 138.273438 C 49.03125 136.929688 46.757812 135.390625 44.625 133.667969 C 42.132812 131.65625 39.84375 129.398438 37.792969 126.945312 C 36.492188 125.378906 35.28125 123.726562 34.183594 122.003906 C 32.390625 119.199219 30.882812 116.207031 29.6875 113.050781 C 29.238281 111.851562 28.832031 110.632812 28.472656 109.394531 C 27.671875 106.601562 27.109375 103.707031 26.820312 100.726562 C 26.667969 99.179688 26.597656 97.605469 26.597656 96.015625 L 26.597656 53.984375 C 26.597656 27.253906 48.355469 5.554688 75.15625 5.554688 C 101.957031 5.554688 123.714844 27.253906 123.714844 53.984375 L 123.714844 96.015625 C 123.714844 121.84375 103.394531 142.976562 77.839844 144.371094 Z M 86.179688 137.460938 C 104.574219 132.605469 118.144531 115.878906 118.144531 96.015625 L 118.144531 53.984375 C 118.144531 30.320312 98.882812 11.109375 75.15625 11.109375 C 51.429688 11.109375 32.167969 30.320312 32.167969 53.984375 L 32.167969 88.910156 C 35.570312 85.996094 37.238281 83.332031 37.804688 80.398438 C 40 69.039062 39.179688 55.394531 39.179688 53.984375 C 39.179688 37.210938 55.300781 18.109375 75.15625 18.109375 C 94.480469 18.109375 110.261719 33.34375 111.09375 52.417969 C 111.320312 55.789062 112.296875 72.976562 109.617188 90.832031 C 106.550781 111.199219 98.535156 125.042969 86.179688 137.460938 Z M 65.890625 137.890625 C 68.871094 138.542969 71.976562 138.890625 75.15625 138.890625 C 75.539062 138.890625 76.492188 138.867188 76.589844 138.859375 C 91.300781 125.8125 100.808594 111.964844 104.105469 90.003906 C 106.707031 72.65625 105.75 55.949219 105.53125 52.761719 C 105.53125 52.738281 105.527344 52.710938 105.527344 52.6875 C 104.84375 36.554688 91.5 23.667969 75.15625 23.667969 C 58.378906 23.667969 44.75 39.8125 44.75 53.984375 C 44.75 55.457031 45.554688 69.640625 43.277344 81.457031 C 42.34375 86.265625 39.441406 90.792969 32.167969 95.910156 L 32.167969 96.015625 C 32.167969 97.421875 32.234375 98.816406 32.367188 100.195312 C 32.503906 101.566406 32.695312 102.917969 32.957031 104.25 C 45.332031 96.292969 49.398438 89.464844 50.671875 82.871094 C 53.074219 70.445312 52.289062 55.527344 52.289062 53.984375 C 52.289062 43.320312 62.539062 31.183594 75.15625 31.183594 C 87.496094 31.183594 97.5625 40.949219 98.007812 53.148438 L 98.019531 53.277344 C 98.222656 56.320312 99.144531 72.300781 96.652344 88.894531 C 93.460938 110.128906 83.785156 122.960938 68.957031 135.515625 C 68.070312 136.273438 67.046875 137.0625 65.890625 137.890625 Z M 59.0625 135.777344 C 61.601562 134.167969 63.738281 132.648438 65.351562 131.285156 C 79.113281 119.632812 88.179688 107.777344 91.144531 88.070312 C 93.550781 72.039062 92.660156 56.601562 92.457031 53.65625 C 92.453125 53.601562 92.453125 53.542969 92.449219 53.496094 C 92.441406 53.460938 92.441406 53.429688 92.441406 53.390625 C 92.128906 44.144531 84.503906 36.738281 75.15625 36.738281 C 65.609375 36.738281 57.859375 45.921875 57.859375 53.984375 C 57.859375 55.582031 58.632812 71.042969 56.144531 83.929688 C 54.621094 91.785156 50.011719 100.25 34.460938 109.871094 C 34.601562 110.285156 34.753906 110.6875 34.902344 111.09375 C 35.636719 113.035156 36.507812 114.910156 37.5 116.707031 C 56.632812 105.050781 61.675781 94.523438 63.453125 85.328125 C 66.058594 71.839844 65.300781 55.660156 65.300781 53.984375 C 65.300781 49.394531 69.71875 44.160156 75.15625 44.160156 C 80.59375 44.160156 85.011719 48.5625 85.011719 53.984375 C 85.011719 54.011719 86.308594 70.144531 83.78125 86.972656 C 81.128906 104.632812 72.867188 115.183594 60.535156 125.628906 C 58.359375 127.464844 55.269531 129.566406 51.488281 131.800781 C 52.355469 132.378906 53.246094 132.917969 54.160156 133.429688 C 55.738281 134.3125 57.375 135.101562 59.0625 135.777344 Z M 46.707031 128.144531 C 51.046875 125.6875 54.578125 123.382812 56.929688 121.390625 C 68.191406 111.851562 75.847656 102.285156 78.269531 86.148438 C 80.738281 69.738281 79.441406 54.011719 79.441406 53.984375 C 79.441406 51.628906 77.519531 49.714844 75.15625 49.714844 C 72.792969 49.714844 70.871094 51.988281 70.871094 53.984375 C 70.871094 55.714844 71.613281 72.4375 68.921875 86.378906 C 66.957031 96.550781 61.679688 108.464844 40.507812 121.382812 C 41.015625 122.066406 41.539062 122.738281 42.078125 123.390625 C 43.5 125.09375 45.046875 126.683594 46.707031 128.144531 Z M 108.578125 5.554688 C 107.042969 5.554688 105.792969 4.3125 105.792969 2.777344 C 105.792969 1.246094 107.042969 0 108.578125 0 L 122.507812 0 C 125.457031 0 128.292969 1.171875 130.382812 3.253906 C 132.472656 5.339844 133.648438 8.167969 133.648438 11.109375 L 133.648438 25 C 133.648438 26.535156 132.398438 27.777344 130.863281 27.777344 C 129.324219 27.777344 128.078125 26.535156 128.078125 25 L 128.078125 11.109375 C 128.078125 9.640625 127.492188 8.222656 126.445312 7.183594 C 125.402344 6.140625 123.984375 5.554688 122.507812 5.554688 Z M 108.578125 150 C 107.042969 150 105.792969 148.753906 105.792969 147.222656 C 105.792969 145.6875 107.042969 144.445312 108.578125 144.445312 L 122.507812 144.445312 C 123.984375 144.445312 125.402344 143.859375 126.445312 142.816406 C 127.492188 141.777344 128.078125 140.359375 128.078125 138.890625 L 128.078125 125 C 128.078125 123.464844 129.324219 122.222656 130.863281 122.222656 C 132.398438 122.222656 133.648438 123.464844 133.648438 125 L 133.648438 138.890625 C 133.648438 141.832031 132.472656 144.660156 130.382812 146.746094 C 128.292969 148.828125 125.457031 150 122.507812 150 Z M 41.734375 0 C 43.269531 0 44.519531 1.246094 44.519531 2.777344 C 44.519531 4.3125 43.269531 5.554688 41.734375 5.554688 L 27.804688 5.554688 C 26.328125 5.554688 24.910156 6.140625 23.867188 7.183594 C 22.820312 8.222656 22.234375 9.640625 22.234375 11.109375 L 22.234375 25 C 22.234375 26.535156 20.988281 27.777344 19.449219 27.777344 C 17.914062 27.777344 16.664062 26.535156 16.664062 25 L 16.664062 11.109375 C 16.664062 8.167969 17.839844 5.339844 19.929688 3.253906 C 22.019531 1.171875 24.855469 0 27.804688 0 Z M 41.734375 144.445312 C 43.269531 144.445312 44.519531 145.6875 44.519531 147.222656 C 44.519531 148.753906 43.269531 150 41.734375 150 L 27.804688 150 C 24.855469 150 22.019531 148.828125 19.929688 146.746094 C 17.839844 144.660156 16.664062 141.832031 16.664062 138.890625 L 16.664062 125 C 16.664062 123.464844 17.914062 122.222656 19.449219 122.222656 C 20.988281 122.222656 22.234375 123.464844 22.234375 125 L 22.234375 138.890625 C 22.234375 140.359375 22.820312 141.777344 23.867188 142.816406 C 24.910156 143.859375 26.328125 144.445312 27.804688 144.445312 Z M 41.734375 144.445312 " fill-opacity="1" fill-rule="evenodd"/></g></svg>