<svg xmlns="http://www.w3.org/2000/svg" xmlns:xlink="http://www.w3.org/1999/xlink" width="200" zoomAndPan="magnify" viewBox="0 0 150 149.999998" height="200" preserveAspectRatio="xMidYMid meet" version="1.0"><defs><clipPath id="bf85eeec5c"><path d="M 7 21.398438 L 129 21.398438 L 129 128.648438 L 7 128.648438 Z M 7 21.398438 " clip-rule="nonzero"/></clipPath><clipPath id="f0334a8cb9"><path d="M 7 55 L 143.214844 55 L 143.214844 128.648438 L 7 128.648438 Z M 7 55 " clip-rule="nonzero"/></clipPath></defs><g clip-path="url(#bf85eeec5c)"><path fill="#000000" d="M 128.476562 45.652344 C 128.476562 40.289062 124.136719 35.949219 118.773438 35.949219 C 101.636719 35.949219 66.703125 35.949219 54.878906 35.949219 C 52.3125 35.949219 49.839844 34.925781 48.019531 33.105469 C 45.460938 30.550781 41.710938 26.796875 39.152344 24.238281 C 37.332031 22.421875 34.859375 21.398438 32.292969 21.398438 C 28.34375 21.398438 22.144531 21.398438 16.90625 21.398438 C 14.328125 21.398438 11.867188 22.421875 10.046875 24.238281 C 8.226562 26.058594 7.203125 28.523438 7.203125 31.097656 C 7.203125 51.390625 7.203125 98.121094 7.203125 118.414062 C 7.203125 120.992188 8.226562 123.453125 10.046875 125.273438 C 11.867188 127.09375 14.328125 128.113281 16.90625 128.113281 C 39.625 128.113281 96.054688 128.113281 118.773438 128.113281 C 121.351562 128.113281 123.8125 127.09375 125.632812 125.273438 C 127.453125 123.453125 128.476562 120.992188 128.476562 118.414062 C 128.476562 100.707031 128.476562 63.359375 128.476562 45.652344 " fill-opacity="1" fill-rule="evenodd"/></g><path fill="#000000" d="M 123.625 50.5 C 123.625 47.820312 121.457031 45.652344 118.773438 45.652344 L 19.332031 45.652344 C 16.652344 45.652344 14.480469 47.820312 14.480469 50.5 L 14.480469 115.988281 C 14.480469 118.667969 16.652344 120.839844 19.332031 120.839844 L 118.773438 120.839844 C 121.457031 120.839844 123.625 118.667969 123.625 115.988281 L 123.625 50.5 " fill-opacity="1" fill-rule="evenodd"/><g clip-path="url(#f0334a8cb9)"><path fill="#000000" d="M 142.859375 66.191406 C 143.398438 63.511719 142.628906 60.753906 140.761719 58.660156 C 138.898438 56.566406 136.128906 55.351562 133.210938 55.351562 C 108.019531 55.351562 49.574219 55.351562 28.058594 55.351562 C 23.339844 55.351562 19.285156 58.488281 18.414062 62.820312 C 15.796875 75.816406 10.398438 102.667969 7.375 117.722656 C 6.835938 120.394531 7.601562 123.152344 9.46875 125.246094 C 11.328125 127.339844 14.101562 128.550781 17.019531 128.550781 C 42.210938 128.550781 100.660156 128.550781 122.175781 128.550781 C 126.894531 128.550781 130.949219 125.414062 131.820312 121.085938 C 134.433594 108.085938 139.835938 81.238281 142.859375 66.191406 " fill-opacity="1" fill-rule="evenodd"/></g></svg>