<svg xmlns="http://www.w3.org/2000/svg" xmlns:xlink="http://www.w3.org/1999/xlink" width="200" zoomAndPan="magnify" viewBox="0 0 150 149.999998" height="200" preserveAspectRatio="xMidYMid meet" version="1.0"><path fill="#000000" d="M 80 115 L 110 115 L 110 125 L 80 125 Z M 80 115 " fill-opacity="1" fill-rule="nonzero"/><path fill="#000000" d="M 82.5 60 C 82.5 60.492188 82.453125 60.980469 82.355469 61.464844 C 82.261719 61.945312 82.117188 62.414062 81.929688 62.871094 C 81.742188 63.324219 81.507812 63.757812 81.234375 64.167969 C 80.960938 64.578125 80.652344 64.957031 80.304688 65.304688 C 79.957031 65.652344 79.578125 65.960938 79.167969 66.234375 C 78.757812 66.507812 78.324219 66.742188 77.871094 66.929688 C 77.414062 67.117188 76.945312 67.261719 76.464844 67.355469 C 75.980469 67.453125 75.492188 67.5 75 67.5 C 74.507812 67.5 74.019531 67.453125 73.535156 67.355469 C 73.054688 67.261719 72.585938 67.117188 72.128906 66.929688 C 71.675781 66.742188 71.242188 66.507812 70.832031 66.234375 C 70.421875 65.960938 70.042969 65.652344 69.695312 65.304688 C 69.347656 64.957031 69.039062 64.578125 68.765625 64.167969 C 68.492188 63.757812 68.257812 63.324219 68.070312 62.871094 C 67.882812 62.414062 67.738281 61.945312 67.644531 61.464844 C 67.546875 60.980469 67.5 60.492188 67.5 60 C 67.5 59.507812 67.546875 59.019531 67.644531 58.535156 C 67.738281 58.054688 67.882812 57.585938 68.070312 57.128906 C 68.257812 56.675781 68.492188 56.242188 68.765625 55.832031 C 69.039062 55.421875 69.347656 55.042969 69.695312 54.695312 C 70.042969 54.347656 70.421875 54.039062 70.832031 53.765625 C 71.242188 53.492188 71.675781 53.257812 72.128906 53.070312 C 72.585938 52.882812 73.054688 52.738281 73.535156 52.644531 C 74.019531 52.546875 74.507812 52.5 75 52.5 C 75.492188 52.5 75.980469 52.546875 76.464844 52.644531 C 76.945312 52.738281 77.414062 52.882812 77.871094 53.070312 C 78.324219 53.257812 78.757812 53.492188 79.167969 53.765625 C 79.578125 54.039062 79.957031 54.347656 80.304688 54.695312 C 80.652344 55.042969 80.960938 55.421875 81.234375 55.832031 C 81.507812 56.242188 81.742188 56.675781 81.929688 57.128906 C 82.117188 57.585938 82.261719 58.054688 82.355469 58.535156 C 82.453125 59.019531 82.5 59.507812 82.5 60 Z M 82.5 60 " fill-opacity="1" fill-rule="nonzero"/><path fill="#000000" d="M 65 80 C 67.449219 81.25 68.449219 84.25 67.25 86.699219 L 66.25 88.699219 C 69 89.550781 71.949219 90 75 90 C 91.550781 90 105 76.550781 105 60 C 105 43.449219 91.550781 30 75 30 C 58.449219 30 45 43.449219 45 60 C 45 69.949219 49.851562 78.699219 57.300781 84.199219 L 58.300781 82.25 C 59.550781 79.75 62.550781 78.75 65 80 Z M 57.5 60 C 57.5 50.351562 65.351562 42.5 75 42.5 C 84.648438 42.5 92.5 50.351562 92.5 60 C 92.5 69.648438 84.648438 77.5 75 77.5 C 65.351562 77.5 57.5 69.648438 57.5 60 Z M 57.5 60 " fill-opacity="1" fill-rule="nonzero"/><path fill="#000000" d="M 50 120 C 50 120.328125 49.96875 120.652344 49.902344 120.976562 C 49.839844 121.296875 49.746094 121.609375 49.621094 121.914062 C 49.492188 122.214844 49.339844 122.503906 49.15625 122.777344 C 48.976562 123.050781 48.769531 123.304688 48.535156 123.535156 C 48.304688 123.769531 48.050781 123.976562 47.777344 124.15625 C 47.503906 124.339844 47.214844 124.492188 46.914062 124.621094 C 46.609375 124.746094 46.296875 124.839844 45.976562 124.902344 C 45.652344 124.96875 45.328125 125 45 125 C 44.671875 125 44.347656 124.96875 44.023438 124.902344 C 43.703125 124.839844 43.390625 124.746094 43.085938 124.621094 C 42.785156 124.492188 42.496094 124.339844 42.222656 124.15625 C 41.949219 123.976562 41.695312 123.769531 41.464844 123.535156 C 41.230469 123.304688 41.023438 123.050781 40.84375 122.777344 C 40.660156 122.503906 40.507812 122.214844 40.378906 121.914062 C 40.253906 121.609375 40.160156 121.296875 40.097656 120.976562 C 40.03125 120.652344 40 120.328125 40 120 C 40 119.671875 40.03125 119.347656 40.097656 119.023438 C 40.160156 118.703125 40.253906 118.390625 40.378906 118.085938 C 40.507812 117.785156 40.660156 117.496094 40.84375 117.222656 C 41.023438 116.949219 41.230469 116.695312 41.464844 116.464844 C 41.695312 116.230469 41.949219 116.023438 42.222656 115.84375 C 42.496094 115.660156 42.785156 115.507812 43.085938 115.378906 C 43.390625 115.253906 43.703125 115.160156 44.023438 115.097656 C 44.347656 115.03125 44.671875 115 45 115 C 45.328125 115 45.652344 115.03125 45.976562 115.097656 C 46.296875 115.160156 46.609375 115.253906 46.914062 115.378906 C 47.214844 115.507812 47.503906 115.660156 47.777344 115.84375 C 48.050781 116.023438 48.304688 116.230469 48.535156 116.464844 C 48.769531 116.695312 48.976562 116.949219 49.15625 117.222656 C 49.339844 117.496094 49.492188 117.785156 49.621094 118.085938 C 49.746094 118.390625 49.839844 118.703125 49.902344 119.023438 C 49.96875 119.347656 50 119.671875 50 120 Z M 50 120 " fill-opacity="1" fill-rule="nonzero"/><path fill="#000000" d="M 122 0 L 28 0 C 20.851562 0 15 5.851562 15 13 L 15 137 C 15 144.148438 20.851562 150 28 150 L 122 150 C 129.148438 150 135 144.148438 135 137 L 135 13 C 135 5.851562 129.148438 0 122 0 Z M 35 15 L 40 15 C 42.75 15 45 17.25 45 20 C 45 22.75 42.75 25 40 25 L 35 25 C 32.25 25 30 22.75 30 20 C 30 17.25 32.25 15 35 15 Z M 60 120 C 60 128.25 53.25 135 45 135 C 36.75 135 30 128.25 30 120 C 30 111.75 36.75 105 45 105 C 45.601562 105 46.199219 105.101562 46.800781 105.199219 L 52.75 93.25 C 42.050781 86.050781 35 73.851562 35 60 C 35 37.949219 52.949219 20 75 20 C 97.050781 20 115 37.949219 115 60 C 115 82.050781 97.050781 100 75 100 C 70.351562 100 65.898438 99.148438 61.75 97.699219 L 55.800781 109.601562 C 58.398438 112.300781 60 115.949219 60 120 Z M 120 130 C 120 132.75 117.75 135 115 135 L 75 135 C 72.25 135 70 132.75 70 130 L 70 110 C 70 107.25 72.25 105 75 105 L 115 105 C 117.75 105 120 107.25 120 110 Z M 115 25 L 110 25 C 107.25 25 105 22.75 105 20 C 105 17.25 107.25 15 110 15 L 115 15 C 117.75 15 120 17.25 120 20 C 120 22.75 117.75 25 115 25 Z M 115 25 " fill-opacity="1" fill-rule="nonzero"/></svg>