<svg xmlns="http://www.w3.org/2000/svg" xmlns:xlink="http://www.w3.org/1999/xlink" width="200" zoomAndPan="magnify" viewBox="0 0 150 149.999998" height="200" preserveAspectRatio="xMidYMid meet" version="1.0"><defs><clipPath id="1851cbba62"><path d="M 7.5 14 L 43 14 L 43 68 L 7.5 68 Z M 7.5 14 " clip-rule="nonzero"/></clipPath><clipPath id="b150f30b06"><path d="M 7.5 82 L 43 82 L 43 140 L 7.5 140 Z M 7.5 82 " clip-rule="nonzero"/></clipPath><clipPath id="1a4d9e40e8"><path d="M 7.5 46 L 43 46 L 43 103 L 7.5 103 Z M 7.5 46 " clip-rule="nonzero"/></clipPath><clipPath id="11b250c43a"><path d="M 96 110 L 142.5 110 L 142.5 140 L 96 140 Z M 96 110 " clip-rule="nonzero"/></clipPath><clipPath id="b5cbbe2653"><path d="M 101 42 L 142.5 42 L 142.5 70 L 101 70 Z M 101 42 " clip-rule="nonzero"/></clipPath><clipPath id="5a9aa00baf"><path d="M 45 42 L 142.5 42 L 142.5 105 L 45 105 Z M 45 42 " clip-rule="nonzero"/></clipPath></defs><g clip-path="url(#1851cbba62)"><path fill="#000000" d="M 9.164062 40.820312 L 41.273438 67.667969 C 41.917969 65.125 42.601562 61.253906 42.601562 56.101562 C 42.601562 47.898438 40.925781 42.984375 40.359375 41.542969 L 7.816406 14.226562 C 8.265625 15.460938 10.199219 21.355469 10.199219 30.988281 C 10.199219 35.71875 9.679688 38.859375 9.164062 40.820312 Z M 9.164062 40.820312 " fill-opacity="1" fill-rule="nonzero"/></g><g clip-path="url(#b150f30b06)"><path fill="#000000" d="M 8.882812 82.890625 C 9.527344 85.796875 10.199219 90.140625 10.199219 95.789062 C 10.199219 105.273438 8.117188 108.371094 8.125 108.371094 C 7.167969 109.515625 7.324219 111.21875 8.46875 112.171875 L 40.730469 139.054688 C 41.492188 135.894531 42.601562 130.167969 42.601562 123.601562 C 42.601562 116.996094 41.222656 111.761719 40.304688 109.007812 Z M 8.882812 82.890625 " fill-opacity="1" fill-rule="nonzero"/></g><g clip-path="url(#1a4d9e40e8)"><path fill="#000000" d="M 8.386719 75.457031 L 40.640625 102.257812 C 41.347656 100.160156 42.601562 95.488281 42.601562 88.5 C 42.601562 80.398438 40.921875 75.402344 40.355469 73.941406 L 7.863281 46.773438 C 8.402344 48.316406 10.199219 54.128906 10.199219 63.390625 C 10.199219 70.792969 8.941406 74.269531 8.386719 75.457031 Z M 8.386719 75.457031 " fill-opacity="1" fill-rule="nonzero"/></g><path fill="#000000" d="M 96.960938 36.660156 C 97.179688 36.820312 97.34375 37.027344 97.550781 37.199219 L 137.519531 37.199219 L 100.421875 10.703125 C 99.964844 10.375 99.410156 10.199219 98.851562 10.199219 L 59.824219 10.199219 Z M 96.960938 36.660156 " fill-opacity="1" fill-rule="nonzero"/><path fill="#000000" d="M 80.757812 36.660156 L 43.625 10.199219 L 10.96875 10.199219 L 43.132812 37.199219 L 81.351562 37.199219 C 81.140625 37.027344 80.980469 36.820312 80.757812 36.660156 Z M 80.757812 36.660156 " fill-opacity="1" fill-rule="nonzero"/><path fill="#000000" d="M 85.800781 131.699219 L 85.800781 110.101562 L 45.808594 110.101562 C 46.683594 113.421875 47.550781 118.082031 47.550781 123.601562 C 47.550781 130.378906 46.484375 136.261719 45.660156 139.800781 L 80.398438 139.800781 C 80.398438 139.800781 85.800781 138.179688 85.800781 131.699219 Z M 60.855469 134.09375 C 60.433594 135.152344 59.421875 135.792969 58.347656 135.792969 C 58.015625 135.792969 57.675781 135.734375 57.347656 135.601562 C 55.960938 135.046875 55.289062 133.476562 55.839844 132.089844 C 55.839844 132.089844 56.730469 129.6875 56.730469 124.992188 C 56.730469 120.296875 55.839844 117.894531 55.832031 117.871094 C 55.308594 116.484375 55.996094 114.925781 57.375 114.386719 C 58.75 113.847656 60.304688 114.515625 60.855469 115.890625 C 60.988281 116.214844 62.128906 119.238281 62.128906 124.992188 C 62.128906 130.746094 60.988281 133.769531 60.855469 134.09375 Z M 60.855469 134.09375 " fill-opacity="1" fill-rule="nonzero"/><g clip-path="url(#11b250c43a)"><path fill="#000000" d="M 102 110.101562 L 102 131.699219 C 102 138.179688 96.601562 139.800781 96.601562 139.800781 L 136.652344 139.800781 C 137.691406 139.800781 138.640625 139.199219 139.085938 138.261719 C 139.207031 138.007812 142.050781 131.914062 142.050781 120.898438 C 142.050781 116.46875 141.59375 112.871094 141.035156 110.101562 Z M 102 110.101562 " fill-opacity="1" fill-rule="nonzero"/></g><path stroke-linecap="round" transform="matrix(2.7, 0, 0, 2.7, 7.500001, 7.500002)" fill="none" stroke-linejoin="round" d="M 31.999423 19.00029 L 31.999423 25.000001 " stroke="#000000" stroke-width="2" stroke-opacity="1" stroke-miterlimit="10"/><path fill="#000000" d="M 96.601562 99.300781 C 96.601562 99.65625 96.53125 100.003906 96.394531 100.332031 C 96.257812 100.664062 96.0625 100.957031 95.808594 101.210938 C 95.554688 101.460938 95.265625 101.65625 94.933594 101.792969 C 94.601562 101.929688 94.257812 102 93.898438 102 C 93.542969 102 93.199219 101.929688 92.867188 101.792969 C 92.535156 101.65625 92.242188 101.460938 91.992188 101.210938 C 91.738281 100.957031 91.542969 100.664062 91.40625 100.332031 C 91.269531 100.003906 91.199219 99.65625 91.199219 99.300781 C 91.199219 98.941406 91.269531 98.597656 91.40625 98.265625 C 91.542969 97.9375 91.738281 97.644531 91.992188 97.390625 C 92.242188 97.136719 92.535156 96.941406 92.867188 96.804688 C 93.199219 96.667969 93.542969 96.601562 93.898438 96.601562 C 94.257812 96.601562 94.601562 96.667969 94.933594 96.804688 C 95.265625 96.941406 95.554688 97.136719 95.808594 97.390625 C 96.0625 97.644531 96.257812 97.9375 96.394531 98.265625 C 96.53125 98.597656 96.601562 98.941406 96.601562 99.300781 Z M 96.601562 99.300781 " fill-opacity="1" fill-rule="nonzero"/><path fill="#000000" d="M 96.601562 112.800781 C 96.601562 113.15625 96.53125 113.503906 96.394531 113.832031 C 96.257812 114.164062 96.0625 114.457031 95.808594 114.710938 C 95.554688 114.960938 95.265625 115.15625 94.933594 115.292969 C 94.601562 115.429688 94.257812 115.5 93.898438 115.5 C 93.542969 115.5 93.199219 115.429688 92.867188 115.292969 C 92.535156 115.15625 92.242188 114.960938 91.992188 114.710938 C 91.738281 114.457031 91.542969 114.164062 91.40625 113.832031 C 91.269531 113.503906 91.199219 113.15625 91.199219 112.800781 C 91.199219 112.441406 91.269531 112.097656 91.40625 111.765625 C 91.542969 111.4375 91.738281 111.144531 91.992188 110.890625 C 92.242188 110.636719 92.535156 110.441406 92.867188 110.304688 C 93.199219 110.167969 93.542969 110.101562 93.898438 110.101562 C 94.257812 110.101562 94.601562 110.167969 94.933594 110.304688 C 95.265625 110.441406 95.554688 110.636719 95.808594 110.890625 C 96.0625 111.144531 96.257812 111.4375 96.394531 111.765625 C 96.53125 112.097656 96.601562 112.441406 96.601562 112.800781 Z M 96.601562 112.800781 " fill-opacity="1" fill-rule="nonzero"/><path fill="#000000" d="M 96.601562 48 C 96.601562 48.359375 96.53125 48.703125 96.394531 49.035156 C 96.257812 49.363281 96.0625 49.65625 95.808594 49.910156 C 95.554688 50.164062 95.265625 50.359375 94.933594 50.496094 C 94.601562 50.632812 94.257812 50.699219 93.898438 50.699219 C 93.542969 50.699219 93.199219 50.632812 92.867188 50.496094 C 92.535156 50.359375 92.242188 50.164062 91.992188 49.910156 C 91.738281 49.65625 91.542969 49.363281 91.40625 49.035156 C 91.269531 48.703125 91.199219 48.359375 91.199219 48 C 91.199219 47.640625 91.269531 47.296875 91.40625 46.964844 C 91.542969 46.636719 91.738281 46.34375 91.992188 46.089844 C 92.242188 45.835938 92.535156 45.640625 92.867188 45.503906 C 93.199219 45.367188 93.542969 45.300781 93.898438 45.300781 C 94.257812 45.300781 94.601562 45.367188 94.933594 45.503906 C 95.265625 45.640625 95.554688 45.835938 95.808594 46.089844 C 96.0625 46.34375 96.257812 46.636719 96.394531 46.964844 C 96.53125 47.296875 96.601562 47.640625 96.601562 48 Z M 96.601562 48 " fill-opacity="1" fill-rule="nonzero"/><path fill="#000000" d="M 107.398438 91.199219 L 80.398438 91.199219 C 78.90625 91.199219 77.699219 89.992188 77.699219 88.5 L 77.699219 64.199219 C 77.699219 62.710938 78.90625 61.5 80.398438 61.5 L 107.398438 61.5 C 108.894531 61.5 110.101562 62.710938 110.101562 64.199219 L 110.101562 88.5 C 110.101562 89.992188 108.894531 91.199219 107.398438 91.199219 Z M 83.101562 85.800781 L 104.699219 85.800781 L 104.699219 66.898438 L 83.101562 66.898438 Z M 83.101562 85.800781 " fill-opacity="1" fill-rule="nonzero"/><g clip-path="url(#b5cbbe2653)"><path fill="#000000" d="M 101.550781 64.199219 L 107.964844 64.199219 L 107.964844 69.601562 L 140.40625 69.601562 C 141.199219 66.679688 142.050781 62.15625 142.050781 56.101562 C 142.050781 50.039062 141.191406 45.527344 140.398438 42.601562 L 101.105469 42.601562 C 101.375 43.558594 101.550781 44.546875 101.550781 45.570312 Z M 101.550781 64.199219 " fill-opacity="1" fill-rule="nonzero"/></g><g clip-path="url(#5a9aa00baf)"><path fill="#000000" d="M 107.964844 75 L 107.964844 88.613281 L 80.738281 88.613281 L 80.738281 64.199219 L 85.351562 64.199219 L 85.351562 45.570312 C 85.351562 44.546875 85.171875 43.558594 84.902344 42.601562 L 45.914062 42.601562 C 46.703125 45.53125 47.550781 50.082031 47.550781 56.101562 C 47.550781 62.117188 46.703125 66.671875 45.914062 69.601562 L 79.953125 69.601562 L 79.953125 75 L 45.914062 75 C 46.703125 77.929688 47.550781 82.480469 47.550781 88.5 C 47.550781 94.207031 46.160156 101.460938 45.34375 104.699219 L 85.800781 104.699219 L 85.800781 91.199219 L 102 91.199219 L 102 104.699219 L 139.558594 104.699219 C 140.398438 102.449219 142.050781 96.929688 142.050781 88.5 C 142.050781 82.445312 141.199219 77.917969 140.40625 75 Z M 60.855469 65.203125 C 60.433594 66.257812 59.421875 66.898438 58.347656 66.898438 C 58.015625 66.898438 57.675781 66.839844 57.347656 66.707031 C 55.960938 66.152344 55.289062 64.582031 55.839844 63.195312 C 55.839844 63.195312 56.730469 60.796875 56.730469 56.097656 C 56.730469 51.398438 55.839844 49 55.832031 48.976562 C 55.308594 47.59375 55.996094 46.03125 57.375 45.492188 C 58.75 44.953125 60.304688 45.617188 60.855469 46.996094 C 60.988281 47.324219 62.128906 50.34375 62.128906 56.097656 C 62.128906 61.851562 60.988281 64.875 60.855469 65.203125 Z M 60.855469 98.867188 C 60.433594 99.925781 59.421875 100.566406 58.347656 100.566406 C 58.015625 100.566406 57.675781 100.507812 57.347656 100.375 C 55.960938 99.820312 55.289062 98.25 55.839844 96.863281 C 55.839844 96.863281 56.730469 94.460938 56.730469 89.765625 C 56.730469 85.070312 55.839844 82.667969 55.832031 82.644531 C 55.308594 81.257812 55.996094 79.699219 57.375 79.160156 C 58.75 78.625 60.304688 79.289062 60.855469 80.664062 C 60.988281 80.988281 62.128906 84.011719 62.128906 89.765625 C 62.128906 95.519531 60.988281 98.542969 60.855469 98.867188 Z M 60.855469 98.867188 " fill-opacity="1" fill-rule="nonzero"/></g></svg>